<?xml version="1.0" encoding="UTF-8"?>
<svg version="1.1" xmlns="http://www.w3.org/2000/svg" width="500" height="500">
<path d="M0 0 C165 0 330 0 500 0 C500 165 500 330 500 500 C335 500 170 500 0 500 C0 335 0 170 0 0 Z " fill="#FEFEFE" transform="translate(0,0)"/>
<path d="M0 0 C14.19 0 28.38 0 43 0 C63.27914054 40.42217947 63.27914054 40.42217947 69.74267578 54.12744141 C77.21684678 69.8848281 85.16926459 85.41770134 93 101 C95.56235953 97.81676845 97.36750336 94.5092417 99.1875 90.85546875 C99.48580215 90.25876877 99.78410431 89.66206879 100.09144592 89.04728699 C101.06517847 87.09609149 102.03275521 85.14191871 103 83.1875 C103.68531899 81.8099857 104.37078621 80.43254513 105.05639648 79.05517578 C109.21829673 70.67793963 113.28242174 62.25887574 117.27856445 53.80126953 C125.88189077 35.72220226 135.01798465 17.89268194 144 0 C157.2 0 170.4 0 184 0 C184 3.3 184 6.6 184 10 C177.4 10 170.8 10 164 10 C164 51.25 164 92.5 164 135 C170.27 135 176.54 135 183 135 C183 138.3 183 141.6 183 145 C164.52 145 146.04 145 127 145 C127 141.7 127 138.4 127 135 C132.94 135 138.88 135 145 135 C144.67 98.7 144.34 62.4 144 25 C138.39 36.55 132.78 48.1 127 60 C121.55822047 70.95168776 121.55822047 70.95168776 119.07919312 75.86019897 C113.37676342 87.15398983 107.77062091 98.48363953 102.39697266 109.93847656 C100.12445816 114.76143231 97.71426935 119.40996557 95 124 C90.38 124 85.76 124 81 124 C80.49774902 122.96520508 79.99549805 121.93041016 79.47802734 120.86425781 C70.67993363 102.74340979 61.8610239 84.63694927 52.81054688 66.640625 C47.81480488 56.6846979 42.9947516 46.64895907 38.24169922 36.57519531 C36.53292804 33.03132618 34.7594833 29.5189666 33 26 C32.67 61.97 32.34 97.94 32 135 C37.94 135 43.88 135 50 135 C50 138.3 50 141.6 50 145 C34.16 145 18.32 145 2 145 C2 141.7 2 138.4 2 135 C7.94 135 13.88 135 20 135 C20 94.08 20 53.16 20 11 C13.4 11 6.8 11 0 11 C0 7.37 0 3.74 0 0 Z " fill="#020202" transform="translate(242,137)"/>
<path d="M0 0 C18.81 0 37.62 0 57 0 C57 3.63 57 7.26 57 11 C50.73 11 44.46 11 38 11 C38.33 28.49 38.66 45.98 39 64 C42.63 60.7 46.26 57.4 50 54 C52.69866792 51.80340983 55.39742998 49.60690199 58.10546875 47.421875 C62.5565192 43.69764926 66.77163659 39.72977289 71.015625 35.7734375 C75.73671339 31.37277167 80.62485699 27.17654532 85.52734375 22.98046875 C86.15970947 22.4390625 86.7920752 21.89765625 87.44360352 21.33984375 C88.71269055 20.25411741 89.98268346 19.16944886 91.25366211 18.0859375 C93.56591397 16.11084252 95.84874945 14.15125055 98 12 C93.71 11.67 89.42 11.34 85 11 C85 7.37 85 3.74 85 0 C100.84 0 116.68 0 133 0 C133 3.63 133 7.26 133 11 C131.87464844 10.90976563 130.74929687 10.81953125 129.58984375 10.7265625 C121.30464432 10.41429027 115.23962745 10.86720544 108.92749023 16.62109375 C106.44543315 19.12167123 104.02508869 21.66990488 101.64599609 24.26855469 C99.40166772 26.62939373 96.93822763 28.62028229 94.375 30.625 C88.45157868 35.35667486 82.96653136 40.51431485 77.42480469 45.6796875 C70.53068857 52.0682036 63.23574043 58.00639501 56 64 C57.67655125 68.28935147 60.88022258 71.25706738 64.03173828 74.49682617 C64.65006531 75.13953964 65.26839233 75.78225311 65.90545654 76.44444275 C72.38031626 83.15670164 78.92298216 89.80351247 85.47021484 96.44506836 C88.56893531 99.59274419 91.64556885 102.75978292 94.70458984 105.94604492 C98.4082805 109.80340466 102.14810127 113.62206259 105.9158287 117.4168644 C107.33929018 118.86286923 108.74988054 120.32167128 110.14651871 121.79360008 C119.78472836 132.05567862 119.78472836 132.05567862 132.99560547 135.3996582 C135.36418053 135.37748826 137.63864887 135.23076222 140 135 C140 138.3 140 141.6 140 145 C128.50304742 147.3914518 114.47621357 149.53093944 103.67436218 143.75683594 C91.74435604 135.86722931 82.13735557 124.46855619 72.60675049 113.94134521 C68.19221908 109.11222332 63.64218366 104.41073354 59.11569214 99.68687439 C52.30377118 92.54871708 45.6797631 85.27291676 39 78 C38.67 96.81 38.34 115.62 38 135 C43.94 135 49.88 135 56 135 C56 138.3 56 141.6 56 145 C37.52 145 19.04 145 0 145 C0 141.7 0 138.4 0 135 C5.94 135 11.88 135 18 135 C18 94.08 18 53.16 18 11 C12.06 11 6.12 11 0 11 C0 7.37 0 3.74 0 0 Z " fill="#050505" transform="translate(95,137)"/>
<path d="M0 0 C0.66 0.33 1.32 0.66 2 1 C1.01 1.99 0.02 2.98 -1 4 C45.53 4.495 45.53 4.495 93 5 C93 32.39 93 59.78 93 88 C87.06 88 81.12 88 75 88 C75 91.3 75 94.6 75 98 C74.67 98 74.34 98 74 98 C74 94.37 74 90.74 74 87 C79.94 87 85.88 87 92 87 C92 76.44 92 65.88 92 55 C87.00359375 55.41765625 82.0071875 55.8353125 76.859375 56.265625 C70.15944716 56.70002567 63.45962894 57.01124295 56.75 57.25 C55.89002285 57.28081665 55.0300457 57.3116333 54.14400864 57.34338379 C34.3591878 57.97057459 16.80495523 58.47587064 1.34146118 44.59429932 C-6.43777688 36.87939501 -13.10401455 28.21464716 -19 19 C-17.22984762 15.117249 -15.13414824 13.2601974 -11.75 10.625 C-7.54604909 7.28283141 -3.69337226 3.89301401 0 0 Z " fill="#D3C4B3" transform="translate(169,184)"/>
<path d="M0 0 C17.82 0 35.64 0 54 0 C54 16.5 54 33 54 50 C36.18 50 18.36 50 0 50 C0 33.5 0 17 0 0 Z " fill="#D3C3B2" transform="translate(59,189)"/>
<path d="M0 0 C6.6 0 13.2 0 20 0 C20 0.33 20 0.66 20 1 C13.73 1 7.46 1 1 1 C1 14.53 1 28.06 1 42 C12.22 42 23.44 42 35 42 C35 58.5 35 75 35 92 C23.78 92 12.56 92 1 92 C1 102.56 1 113.12 1 124 C6.94 124 12.88 124 19 124 C19 124.33 19 124.66 19 125 C12.73 125 6.46 125 0 125 C0 83.75 0 42.5 0 0 Z " fill="#CABDAE" transform="translate(406,147)"/>
<path d="M0 0 C0.33 0 0.66 0 1 0 C1 36.63 1 73.26 1 111 C-4.94 111 -10.88 111 -17 111 C-17 114.3 -17 117.6 -17 121 C-17.33 121 -17.66 121 -18 121 C-18 117.37 -18 113.74 -18 110 C-12.06 110 -6.12 110 0 110 C0 99.44 0 88.88 0 78 C-12.54 78 -25.08 78 -38 78 C-33.84134735 68.49450822 -29.72483754 59.15643962 -25.05859375 49.921875 C-24.5278273 48.863172 -23.99706085 47.80446899 -23.45021057 46.71368408 C-21.78312549 43.39052183 -20.11046582 40.07020492 -18.4375 36.75 C-17.31537698 34.51581493 -16.19362988 32.28144101 -15.07226562 30.046875 C-13.00549179 25.92949317 -10.93649522 21.81324557 -8.86499023 17.69824219 C-5.89903304 11.80430255 -2.94814505 5.90286561 0 0 Z " fill="#CDBFAF" transform="translate(386,161)"/>
<path d="M0 0 C2.35981215 3.1464162 4.02287548 5.79981815 5.75 9.26953125 C6.27021729 10.31125488 6.79043457 11.35297852 7.32641602 12.42626953 C7.87869873 13.54372559 8.43098145 14.66118164 9 15.8125 C9.57741943 16.97378418 10.15483887 18.13506836 10.74975586 19.33154297 C14.87755402 27.64891036 18.90219159 36.01405121 22.88012695 44.40405273 C26.8947403 52.84792396 31.07304628 61.20651478 35.29321289 69.54931641 C35.77781982 70.51015137 36.26242676 71.47098633 36.76171875 72.4609375 C37.19444092 73.31478027 37.62716309 74.16862305 38.07299805 75.04833984 C39 77 39 77 39 78 C26.13 78 13.26 78 0 78 C0 52.26 0 26.52 0 0 Z " fill="#D1C2B1" transform="translate(274,161)"/>
<path d="M0 0 C16.5 0 33 0 50 0 C48.43447295 4.69658116 46.6832492 8.969522 44.515625 13.3828125 C44.17754822 14.07833221 43.83947144 14.77385193 43.4911499 15.490448 C42.41421806 17.70366647 41.33213089 19.91431974 40.25 22.125 C39.53873733 23.58577922 38.8277971 25.04671548 38.1171875 26.5078125 C34.12912873 34.69765016 30.09490677 42.86298612 26 51 C23.82069163 48.23500606 22.11924766 45.48698566 20.5480957 42.33911133 C19.85771965 40.96297417 19.85771965 40.96297417 19.15339661 39.55903625 C18.42197701 38.08541878 18.42197701 38.08541878 17.67578125 36.58203125 C17.16951706 35.56904465 16.66325287 34.55605804 16.14164734 33.51237488 C15.07487507 31.37581386 14.01004363 29.23828284 12.94702148 27.09985352 C11.31239653 23.81229191 9.6713484 20.52799811 8.02929688 17.24414062 C6.994413 15.16945968 5.95989498 13.09459618 4.92578125 11.01953125 C4.43209549 10.03104691 3.93840973 9.04256256 3.42976379 8.02412415 C2.97896957 7.11615585 2.52817535 6.20818756 2.0637207 5.27270508 C1.66417679 4.46980545 1.26463287 3.66690582 0.85298157 2.8396759 C0 1 0 1 0 0 Z " fill="#D1C2B2" transform="translate(310,189)"/>
<path d="M0 0 C7.88861133 6.76166686 7.88861133 6.76166686 11.62109375 10.48828125 C12.41064453 11.27654297 13.20019531 12.06480469 14.01367188 12.87695312 C14.81353516 13.68068359 15.61339844 14.48441406 16.4375 15.3125 C17.26443359 16.13556641 18.09136719 16.95863281 18.94335938 17.80664062 C19.72388672 18.58845703 20.50441406 19.37027344 21.30859375 20.17578125 C22.01814209 20.88645752 22.72769043 21.59713379 23.45874023 22.3293457 C25 24 25 24 25 25 C17.08 25 9.16 25 1 25 C1 35.56 1 46.12 1 57 C6.61 57 12.22 57 18 57 C18 57.33 18 57.66 18 58 C12.06 58 6.12 58 0 58 C0 38.86 0 19.72 0 0 Z " fill="#D2C4B5" transform="translate(133,214)"/>
<path d="M0 0 C0.33 0 0.66 0 1 0 C1 9.24 1 18.48 1 28 C-3.62 28 -8.24 28 -13 28 C-11.67582127 24.02746381 -10.42924068 20.5762361 -8.65234375 16.85546875 C-8.21212891 15.93185547 -7.77191406 15.00824219 -7.31835938 14.05664062 C-6.86267578 13.10982422 -6.40699219 12.16300781 -5.9375 11.1875 C-5.47794922 10.22134766 -5.01839844 9.25519531 -4.54492188 8.25976562 C-1.13547633 1.13547633 -1.13547633 1.13547633 0 0 Z " fill="#FBFBFB" transform="translate(386,161)"/>
<path d="M0 0 C3.34742338 4.46323118 5.69847241 9.02904619 8.1875 14 C8.65091797 14.90234375 9.11433594 15.8046875 9.59179688 16.734375 C10.02943359 17.60578125 10.46707031 18.4771875 10.91796875 19.375 C11.31781982 20.16648438 11.7176709 20.95796875 12.12963867 21.7734375 C13 24 13 24 13 28 C8.71 28 4.42 28 0 28 C0 18.76 0 9.52 0 0 Z " fill="#F7F7F7" transform="translate(274,161)"/>
<path d="M0 0 C4.62 0 9.24 0 14 0 C9.88862122 4.23985937 5.59026002 8.27845742 1 12 C0.67 12 0.34 12 0 12 C0 8.04 0 4.08 0 0 Z " fill="#CBBCAC" transform="translate(133,190)"/>
<path d="M0 0 C0.33 0 0.66 0 1 0 C1 9.24 1 18.48 1 28 C0.67 28 0.34 28 0 28 C-0.33 20.74 -0.66 13.48 -1 6 C-1.99 6.495 -1.99 6.495 -3 7 C-1.125 1.125 -1.125 1.125 0 0 Z " fill="#D1D1D1" transform="translate(386,161)"/>
</svg>
