<?xml version="1.0" encoding="UTF-8"?>
<svg version="1.1" xmlns="http://www.w3.org/2000/svg" width="204" height="192">
<path d="M0 0 C67.32 0 134.64 0 204 0 C204 63.36 204 126.72 204 192 C136.68 192 69.36 192 0 192 C0 128.64 0 65.28 0 0 Z " fill="#FCFCFC" transform="translate(0,0)"/>
<path d="M0 0 C0.86625 0.66 1.7325 1.32 2.625 2 C3.429375 2.53625 4.23375 3.0725 5.0625 3.625 C11.56962773 9.65599643 17.4958814 18.18714289 18.05859375 27.234375 C18.0820633 28.73940091 18.08269587 30.2449266 18.0625 31.75 C18.05492676 32.54132324 18.04735352 33.33264648 18.03955078 34.14794922 C17.69586573 46.43280849 12.72203672 55.27308698 4 63.6875 C-5.90270701 71.78802581 -16.74369804 73.44874798 -29.17480469 72.32958984 C-34.64117944 71.51072545 -38.91529432 69.14006591 -43.375 66 C-44.19355469 65.443125 -45.01210937 64.88625 -45.85546875 64.3125 C-53.40501822 58.44484346 -57.39326985 49.94519046 -60.375 41 C-61.4301875 27.99104551 -59.86422616 17.91004375 -51.125 7.625 C-36.79216446 -7.15870289 -18.15890022 -10.76082976 0 0 Z " fill="#F4F4F5" transform="translate(148.375,96)"/>
<path d="M0 0 C0.86625 0.66 1.7325 1.32 2.625 2 C3.429375 2.53625 4.23375 3.0725 5.0625 3.625 C11.56962773 9.65599643 17.4958814 18.18714289 18.05859375 27.234375 C18.0820633 28.73940091 18.08269587 30.2449266 18.0625 31.75 C18.05492676 32.54132324 18.04735352 33.33264648 18.03955078 34.14794922 C17.69586573 46.43280849 12.72203672 55.27308698 4 63.6875 C-5.90270701 71.78802581 -16.74369804 73.44874798 -29.17480469 72.32958984 C-34.64117944 71.51072545 -38.91529432 69.14006591 -43.375 66 C-44.19355469 65.443125 -45.01210937 64.88625 -45.85546875 64.3125 C-53.40501822 58.44484346 -57.39326985 49.94519046 -60.375 41 C-61.4301875 27.99104551 -59.86422616 17.91004375 -51.125 7.625 C-36.79216446 -7.15870289 -18.15890022 -10.76082976 0 0 Z M-48.59765625 15.33984375 C-52.22031139 20.76188364 -52.73670884 26.49630445 -52.6875 32.875 C-52.68621094 33.57173828 -52.68492188 34.26847656 -52.68359375 34.98632812 C-52.57988556 40.56064312 -51.55730853 44.90794676 -49.375 50 C-48.715 50 -48.055 50 -47.375 50 C-47.21 50.680625 -47.045 51.36125 -46.875 52.0625 C-44.22019403 57.26149502 -40.1539933 60.8036056 -34.7890625 63.11328125 C-24.5177939 66.21820628 -15.86779652 66.01989605 -6.1015625 61.46484375 C3.20512961 56.46483008 7.31083169 48.94250494 10.625 39 C11.68705142 29.30498779 9.90555421 20.79946055 4.05078125 12.8671875 C-2.43498473 5.88251644 -10.39336378 2.01843106 -19.85717773 1.60498047 C-32.66965757 1.34334786 -40.02294013 5.80376706 -48.59765625 15.33984375 Z " fill="#0F122A" transform="translate(148.375,96)"/>
<path d="M0 0 C0.74886475 0.00523682 1.49772949 0.01047363 2.26928711 0.01586914 C3.07817383 0.0190918 3.88706055 0.02231445 4.72045898 0.02563477 C5.5705957 0.03401367 6.42073242 0.04239258 7.29663086 0.05102539 C8.15063477 0.05553711 9.00463867 0.06004883 9.88452148 0.06469727 C12.00108749 0.07652166 14.11761771 0.0944577 16.23413086 0.11352539 C16.23413086 2.42352539 16.23413086 4.73352539 16.23413086 7.11352539 C12.60413086 7.11352539 8.97413086 7.11352539 5.23413086 7.11352539 C5.23413086 37.80352539 5.23413086 68.49352539 5.23413086 100.11352539 C16.45413086 100.11352539 27.67413086 100.11352539 39.23413086 100.11352539 C42.23413086 105.11352539 42.23413086 105.11352539 42.23413086 107.11352539 C27.71413086 107.11352539 13.19413086 107.11352539 -1.76586914 107.11352539 C-2.92018097 104.80490172 -2.89158504 103.49973224 -2.89285278 100.9315033 C-2.89567261 100.05512711 -2.89849243 99.17875092 -2.90139771 98.27581787 C-2.89937347 97.31210266 -2.89734924 96.34838745 -2.89526367 95.35546875 C-2.89701599 94.34241165 -2.89876831 93.32935455 -2.90057373 92.28559875 C-2.90498814 88.92483831 -2.9020559 85.56413015 -2.89868164 82.20336914 C-2.89935474 79.87691742 -2.90032482 77.55046576 -2.90158081 75.22401428 C-2.90305718 70.34399751 -2.90090496 65.46399902 -2.89624023 60.58398438 C-2.89053983 54.31323513 -2.89382432 48.04252865 -2.8998127 41.77178097 C-2.90341724 36.9670021 -2.90228027 32.16223346 -2.89968491 27.3574543 C-2.8990155 25.04446978 -2.89984451 22.73148435 -2.90216446 20.4185009 C-2.90468958 17.19303788 -2.90085252 13.96764525 -2.89526367 10.7421875 C-2.8972879 9.77644806 -2.89931213 8.81070862 -2.90139771 7.81570435 C-2.89857788 6.94214798 -2.89575806 6.06859161 -2.89285278 5.16856384 C-2.89247576 4.40515151 -2.89209873 3.64173918 -2.89171028 2.85519314 C-2.71884185 0.46265782 -2.3935563 0.15387857 0 0 Z " fill="#0D1027" transform="translate(46.765869140625,47.886474609375)"/>
<path d="M0 0 C2.58423101 0.79478191 3.60593786 1.4013933 5.12109375 3.65234375 C5.12109375 5.63234375 5.12109375 7.61234375 5.12109375 9.65234375 C10.07109375 9.65234375 15.02109375 9.65234375 20.12109375 9.65234375 C20.12109375 15.92234375 20.12109375 22.19234375 20.12109375 28.65234375 C4.61109375 28.65234375 -10.89890625 28.65234375 -26.87890625 28.65234375 C-26.87890625 10.65234375 -26.87890625 10.65234375 -25.87890625 9.65234375 C-23.5257707 9.57962634 -21.17056957 9.56863507 -18.81640625 9.58984375 C-17.52605469 9.59886719 -16.23570313 9.60789062 -14.90625 9.6171875 C-13.90722656 9.62878906 -12.90820312 9.64039063 -11.87890625 9.65234375 C-11.74484375 8.71261719 -11.61078125 7.77289063 -11.47265625 6.8046875 C-10.87890625 3.65234375 -10.87890625 3.65234375 -9.37890625 1.21484375 C-6.02984748 -0.87831798 -3.82418218 -0.47076779 0 0 Z " fill="#080C28" transform="translate(95.87890625,31.34765625)"/>
<path d="M0 0 C4.05038315 0.47651567 5.46167155 1.34630173 8.1875 4.375 C10.44437993 10.82322837 11.45309492 17.18087948 8.875 23.6875 C7.1875 26.375 7.1875 26.375 5.625 27.53125 C3.30937165 30.50129505 3.61082152 33.93705313 3.5 37.5625 C3.46583984 38.31208984 3.43167969 39.06167969 3.39648438 39.83398438 C3.31415706 41.68046838 3.24914719 43.52770994 3.1875 45.375 C0.2175 45.87 0.2175 45.87 -2.8125 46.375 C-2.74289063 45.22902344 -2.67328125 44.08304688 -2.6015625 42.90234375 C-1.88626992 34.72113947 -1.88626992 34.72113947 -4.1484375 27.14453125 C-5.24399118 26.14413129 -6.34802425 25.15292649 -7.4609375 24.171875 C-10.05423943 20.72413255 -9.47181505 16.62049438 -9.28125 12.48046875 C-8.46027832 7.04153139 -6.01273111 0.80169748 0 0 Z " fill="#070B27" transform="translate(137.8125,109.625)"/>
<path d="M0 0 C0.99 0 1.98 0 3 0 C3 6.93 3 13.86 3 21 C3.66 20.67 4.32 20.34 5 20 C5.33 13.4 5.66 6.8 6 0 C6.99 0 7.98 0 9 0 C9 6.93 9 13.86 9 21 C9.99 21 10.98 21 12 21 C12 14.07 12 7.14 12 0 C12.99 0 13.98 0 15 0 C15.32637486 4.64501365 15.62250029 9.29009528 15.87988281 13.93945312 C15.98344051 15.71593072 16.11057694 17.49100518 16.2421875 19.265625 C16.51677905 25.0481999 15.95283525 27.68253734 12.1796875 32.03125 C9.71332123 36.14730497 10.08467916 41.31185367 10 46 C9.01 46 8.02 46 7 46 C7 45.34 7 44.68 7 44 C6.34 44 5.68 44 5 44 C4.99742188 43.35933594 4.99484375 42.71867187 4.9921875 42.05859375 C4.77375193 37.17291819 4.6106268 34.10998992 0.9375 30.6875 C-2.16621296 27.51696069 -2.42695581 25.277201 -2.4375 20.875 C-2.32574778 18.58141876 -2.17845769 16.28935719 -2 14 C-1.93039063 12.78054687 -1.86078125 11.56109375 -1.7890625 10.3046875 C-1.20936033 1.20936033 -1.20936033 1.20936033 0 0 Z " fill="#16192E" transform="translate(108,110)"/>
<path d="M0 0 C20.79 0 41.58 0 63 0 C63 2.31 63 4.62 63 7 C42.21 7 21.42 7 0 7 C0 4.69 0 2.38 0 0 Z " fill="#040826" transform="translate(61,67)"/>
<path d="M0 0 C2.64590014 -0.02684679 5.29153096 -0.04676357 7.9375 -0.0625 C8.69224609 -0.07087891 9.44699219 -0.07925781 10.22460938 -0.08789062 C12.14994313 -0.09652441 14.07535581 -0.05224333 16 0 C17 1 17 1 17.11352539 4.51000977 C17.11336626 6.07048422 17.10767142 7.63096393 17.09765625 9.19140625 C17.0962413 10.01124496 17.09482635 10.83108368 17.09336853 11.67576599 C17.08775289 14.30471382 17.07519779 16.93357773 17.0625 19.5625 C17.05748701 21.34049357 17.05292376 23.11848846 17.04882812 24.89648438 C17.03777839 29.26435545 17.02050331 33.63216348 17 38 C14.36 37.34 11.72 36.68 9 36 C9 26.1 9 16.2 9 6 C6.03 6 3.06 6 0 6 C0 4.02 0 2.04 0 0 Z " fill="#090B25" transform="translate(124,48)"/>
<path d="M0 0 C20.79 0 41.58 0 63 0 C63 2.31 63 4.62 63 7 C42.21 7 21.42 7 0 7 C0 4.69 0 2.38 0 0 Z M2 2 C2 3.32 2 4.64 2 6 C21.47 6 40.94 6 61 6 C61 4.68 61 3.36 61 2 C41.53 2 22.06 2 2 2 Z " fill="#181827" transform="translate(61,67)"/>
<path d="M0 0 C12.75 -0.125 12.75 -0.125 15 1 C14.835 1.66 14.67 2.32 14.5 3 C13.87816701 6.73099794 13.93591074 10.21873378 14 14 C9.38 14 4.76 14 0 14 C0 9.38 0 4.76 0 0 Z " fill="#E5E5E7" transform="translate(61,121)"/>
<path d="M0 0 C14.19 0 28.38 0 43 0 C43 1.32 43 2.64 43 4 C28.81 4 14.62 4 0 4 C0 2.68 0 1.36 0 0 Z " fill="#3C3D46" transform="translate(81,81)"/>
<path d="M0 0 C12.75 -0.125 12.75 -0.125 15 1 C14.44449305 4.59905908 13.25112752 5.99909799 10.4375 8.25 C9.79683594 8.77078125 9.15617187 9.2915625 8.49609375 9.828125 C8.00238281 10.21484375 7.50867188 10.6015625 7 11 C5.68 10.01 4.36 9.02 3 8 C2.67 9.32 2.34 10.64 2 12 C5.3 12 8.6 12 12 12 C12.33 10.68 12.66 9.36 13 8 C13 9.98 13 11.96 13 14 C8.71 14 4.42 14 0 14 C0 9.38 0 4.76 0 0 Z " fill="#ECECED" transform="translate(61,80)"/>
<path d="M0 0 C12.75 -0.125 12.75 -0.125 15 1 C13.4169423 5.2742558 10.49431596 7.26531794 7 10 C6.01 9.01 5.02 8.02 4 7 C4.33 6.34 4.66 5.68 5 5 C5.99 5.33 6.98 5.66 8 6 C8.99 5.01 9.98 4.02 11 3 C8.03 2.67 5.06 2.34 2 2 C2 4.97 2 7.94 2 11 C5.3 11 8.6 11 12 11 C12.33 9.68 12.66 8.36 13 7 C13 8.98 13 10.96 13 13 C8.71 13 4.42 13 0 13 C0 8.71 0 4.42 0 0 Z " fill="#4B4B4F" transform="translate(61,101)"/>
<path d="M0 0 C12.75 -0.125 12.75 -0.125 15 1 C13.4169423 5.2742558 10.49431596 7.26531794 7 10 C6.01 9.01 5.02 8.02 4 7 C4.33 6.34 4.66 5.68 5 5 C6.32 5.33 7.64 5.66 9 6 C9.99 4.68 10.98 3.36 12 2 C8.7 2 5.4 2 2 2 C2 5.3 2 8.6 2 12 C5.3 12 8.6 12 12 12 C12.33 10.68 12.66 9.36 13 8 C13 9.65 13 11.3 13 13 C8.71 13 4.42 13 0 13 C0 8.71 0 4.42 0 0 Z " fill="#3C3C44" transform="translate(61,121)"/>
<path d="M0 0 C3.3 0 6.6 0 10 0 C8.37660195 1.70884005 6.70680947 3.37446717 5 5 C4.34 5 3.68 5 3 5 C3.99 5.66 4.98 6.32 6 7 C7.65 5.68 9.3 4.36 11 3 C12 4 12 4 12.0625 7.5625 C12.041875 8.696875 12.02125 9.83125 12 11 C11.34 10.34 10.68 9.68 10 9 C7.55987051 8.75712511 7.55987051 8.75712511 4.875 8.875 C3.96492188 8.89304687 3.05484375 8.91109375 2.1171875 8.9296875 C1.41851562 8.95289062 0.71984375 8.97609375 0 9 C0 6.03 0 3.06 0 0 Z " fill="#DBDBDE" transform="translate(63,103)"/>
<path d="M0 0 C3.96 0 7.92 0 12 0 C12 0.33 12 0.66 12 1 C8.7 1 5.4 1 2 1 C2 4.3 2 7.6 2 11 C5.3 11 8.6 11 12 11 C12.33 9.68 12.66 8.36 13 7 C13 8.98 13 10.96 13 13 C8.71 13 4.42 13 0 13 C0 8.71 0 4.42 0 0 Z " fill="#39393F" transform="translate(61,81)"/>
<path d="M0 0 C7.26 0 14.52 0 22 0 C19 3 19 3 16.9152832 3.34057617 C16.13499756 3.32486572 15.35471191 3.30915527 14.55078125 3.29296875 C13.70322266 3.28330078 12.85566406 3.27363281 11.98242188 3.26367188 C11.10134766 3.23853516 10.22027344 3.21339844 9.3125 3.1875 C8.41982422 3.17396484 7.52714844 3.16042969 6.60742188 3.14648438 C4.40433834 3.11114079 2.20247418 3.06180493 0 3 C0 2.01 0 1.02 0 0 Z " fill="#00000F" transform="translate(82,90)"/>
<path d="M0 0 C0.66 0.33 1.32 0.66 2 1 C2 3.64 2 6.28 2 9 C-2.62 9 -7.24 9 -12 9 C-12 8.67 -12 8.34 -12 8 C-7.71 8 -3.42 8 1 8 C-0.03406673 6.74050951 -0.03406673 6.74050951 -2.28515625 6.90234375 C-3.20167969 6.91394531 -4.11820312 6.92554688 -5.0625 6.9375 C-5.98160156 6.94652344 -6.90070313 6.95554688 -7.84765625 6.96484375 C-8.55792969 6.97644531 -9.26820312 6.98804688 -10 7 C-10 6.67 -10 6.34 -10 6 C-8.63875 5.62875 -8.63875 5.62875 -7.25 5.25 C-3.89648511 3.96018658 -2.32291764 2.68028958 0 0 Z " fill="#B5B7BC" transform="translate(73,126)"/>
<path d="M0 0 C3.375 0.25 3.375 0.25 7 1 C9.23892859 3.82299691 9 5.2791079 9 9 C8.01 9 7.02 9 6 9 C5.6596875 8.071875 5.6596875 8.071875 5.3125 7.125 C3.62070165 4.38589791 2.00755839 3.94975528 -1 3 C-0.67 2.01 -0.34 1.02 0 0 Z " fill="#06081D" transform="translate(91,31)"/>
<path d="M0 0 C0.99 0 1.98 0 3 0 C2.67 6.6 2.34 13.2 2 20 C0 18 0 18 -0.22705078 16.12060547 C-0.21657715 15.37697754 -0.20610352 14.63334961 -0.1953125 13.8671875 C-0.18886719 13.06152344 -0.18242188 12.25585938 -0.17578125 11.42578125 C-0.15064453 10.16314453 -0.15064453 10.16314453 -0.125 8.875 C-0.11597656 8.02550781 -0.10695313 7.17601563 -0.09765625 6.30078125 C-0.07405647 4.20040116 -0.03818483 2.10016556 0 0 Z " fill="#06061A" transform="translate(108,110)"/>
<path d="M0 0 C2.625 0.375 2.625 0.375 5 1 C5.625 2.875 5.625 2.875 6 5 C5.34 5.66 4.68 6.32 4 7 C1.375 6.625 1.375 6.625 -1 6 C-1.625 4.125 -1.625 4.125 -2 2 C-1.34 1.34 -0.68 0.68 0 0 Z " fill="#DDDEE0" transform="translate(91,35)"/>
<path d="M0 0 C0.66 0.33 1.32 0.66 2 1 C2 3.31 2 5.62 2 8 C1.34 7.34 0.68 6.68 0 6 C-2.44012949 5.75712511 -2.44012949 5.75712511 -5.125 5.875 C-6.03507812 5.89304687 -6.94515625 5.91109375 -7.8828125 5.9296875 C-8.58148438 5.95289062 -9.28015625 5.97609375 -10 6 C-10 4.35 -10 2.7 -10 1 C-8.02 1.99 -6.04 2.98 -4 4 C-2.68 2.68 -1.36 1.36 0 0 Z " fill="#E1E2E4" transform="translate(73,86)"/>
<path d="M0 0 C0.99 0 1.98 0 3 0 C3 2.64 3 5.28 3 8 C2.34 8 1.68 8 1 8 C1 11.96 1 15.92 1 20 C0.67 20 0.34 20 0 20 C0 13.4 0 6.8 0 0 Z " fill="#27293A" transform="translate(120,110)"/>
<path d="M0 0 C0 3 0 3 -1.53125 4.60546875 C-2.1809375 5.12753906 -2.830625 5.64960937 -3.5 6.1875 C-4.1496875 6.71730469 -4.799375 7.24710937 -5.46875 7.79296875 C-5.9740625 8.19128906 -6.479375 8.58960937 -7 9 C-8.5 7.625 -8.5 7.625 -10 6 C-10 5.34 -10 4.68 -10 4 C-9.46375 4.268125 -8.9275 4.53625 -8.375 4.8125 C-5.42717399 5.04522311 -4.95188505 4.4200144 -2.75 2.5625 C-1.38875 1.2940625 -1.38875 1.2940625 0 0 Z " fill="#34353B" transform="translate(75,82)"/>
<path d="M0 0 C2.12472576 -0.05386629 4.24983652 -0.09273071 6.375 -0.125 C7.55835937 -0.14820312 8.74171875 -0.17140625 9.9609375 -0.1953125 C13 0 13 0 15 2 C11.62416252 4.25055832 10.81640641 4.20667458 6.9375 3.8125 C5.62072266 3.69841797 5.62072266 3.69841797 4.27734375 3.58203125 C2 3 2 3 0 0 Z " fill="#A6A8AD" transform="translate(61,80)"/>
<path d="M0 0 C0.33 0 0.66 0 1 0 C1 4.95 1 9.9 1 15 C1.66 15 2.32 15 3 15 C3 15.66 3 16.32 3 17 C1.68 17 0.36 17 -1 17 C-0.67 11.39 -0.34 5.78 0 0 Z " fill="#28282F" transform="translate(136,139)"/>
<path d="M0 0 C0.66 0.33 1.32 0.66 2 1 C1.25 2.875 1.25 2.875 0 5 C-0.680625 5.28875 -1.36125 5.5775 -2.0625 5.875 C-3.0215625 6.431875 -3.0215625 6.431875 -4 7 C-4.81584568 10.05908413 -4.81584568 10.05908413 -5 13 C-5.75 11.4375 -5.75 11.4375 -6 9 C-4.51591028 5.54737677 -2.65467043 2.65467043 0 0 Z " fill="#353646" transform="translate(135,110)"/>
<path d="M0 0 C0 3 0 3 -1.53125 4.60546875 C-2.1809375 5.12753906 -2.830625 5.64960937 -3.5 6.1875 C-4.1496875 6.71730469 -4.799375 7.24710937 -5.46875 7.79296875 C-5.9740625 8.19128906 -6.479375 8.58960937 -7 9 C-7.99 8.01 -8.98 7.02 -10 6 C-9.67 5.34 -9.34 4.68 -9 4 C-8.01 4.33 -7.02 4.66 -6 5 C-4.32419948 4.02792965 -4.32419948 4.02792965 -2.8125 2.5625 C-1.884375 1.716875 -0.95625 0.87125 0 0 Z " fill="#33333A" transform="translate(75,102)"/>
<path d="M0 0 C4.95 0 9.9 0 15 0 C12.56513393 2.43486607 11.42574894 2.44209813 8.0625 2.8125 C7.18722656 2.92207031 6.31195313 3.03164063 5.41015625 3.14453125 C3 3 3 3 0 0 Z " fill="#17172D" transform="translate(70,41)"/>
<path d="M0 0 C1.98 0 3.96 0 6 0 C5.67 1.65 5.34 3.3 5 5 C3.35 5 1.7 5 0 5 C0 3.35 0 1.7 0 0 Z " fill="#787981" transform="translate(81,109)"/>
<path d="M0 0 C7.26 0 14.52 0 22 0 C20.68 0.99 19.36 1.98 18 3 C17.34 2.67 16.68 2.34 16 2 C13.28737884 1.7677354 10.59226874 1.58063765 7.875 1.4375 C7.12089844 1.39431641 6.36679688 1.35113281 5.58984375 1.30664062 C3.72678112 1.2005168 1.86341476 1.09974999 0 1 C0 0.67 0 0.34 0 0 Z " fill="#1D1D2C" transform="translate(82,90)"/>
<path d="M0 0 C2.97 0 5.94 0 9 0 C7.35 1.65 5.7 3.3 4 5 C3.67 4.01 3.34 3.02 3 2 C2.01 2 1.02 2 0 2 C0 1.34 0 0.68 0 0 Z " fill="#F8F8F8" transform="translate(64,103)"/>
<path d="M0 0 C2.97 0 5.94 0 9 0 C8.67 0.99 8.34 1.98 8 3 C5.36 3 2.72 3 0 3 C0 2.01 0 1.02 0 0 Z " fill="#131322" transform="translate(82,102)"/>
<path d="M0 0 C0 3 0 3 -1.53125 4.60546875 C-2.1809375 5.12753906 -2.830625 5.64960937 -3.5 6.1875 C-4.1496875 6.71730469 -4.799375 7.24710938 -5.46875 7.79296875 C-5.9740625 8.19128906 -6.479375 8.58960938 -7 9 C-7.99 8.01 -8.98 7.02 -10 6 C-9.67 5.34 -9.34 4.68 -9 4 C-8.443125 4.268125 -7.88625 4.53625 -7.3125 4.8125 C-6.1678125 4.9053125 -6.1678125 4.9053125 -5 5 C-2.22877725 2.64573501 -2.22877725 2.64573501 0 0 Z " fill="#1B1B21" transform="translate(75,122)"/>
<path d="M0 0 C0.33 0.66 0.66 1.32 1 2 C3.01669827 3.13350534 3.01669827 3.13350534 5 4 C5 4.66 5 5.32 5 6 C3.35 6 1.7 6 0 6 C0 4.02 0 2.04 0 0 Z " fill="#EEEEEF" transform="translate(63,126)"/>
</svg>
