<?xml version="1.0" encoding="UTF-8"?>
<svg version="1.1" xmlns="http://www.w3.org/2000/svg" width="152" height="148">
<path d="M0 0 C50.16 0 100.32 0 152 0 C152 48.84 152 97.68 152 148 C101.84 148 51.68 148 0 148 C0 99.16 0 50.32 0 0 Z " fill="#00205E" transform="translate(0,0)"/>
<path d="M0 0 C0.99 0 1.98 0 3 0 C2.67 1.32 2.34 2.64 2 4 C3.32 3.67 4.64 3.34 6 3 C6 3.99 6 4.98 6 6 C6.66 6.33 7.32 6.66 8 7 C8 8.65 8 10.3 8 12 C8.721875 11.34 9.44375 10.68 10.1875 10 C13.21597933 7.8464147 14.39703406 7.58823246 18 8 C18.1546875 8.9590625 18.1546875 8.9590625 18.3125 9.9375 C18.539375 10.618125 18.76625 11.29875 19 12 C19.99 12.33 20.98 12.66 22 13 C23.80162669 15.52227736 24.04839136 16.64513 23.625 19.75 C23.41875 20.4925 23.2125 21.235 23 22 C23.99 21.34 24.98 20.68 26 20 C29.6875 20.375 29.6875 20.375 33 21 C33 21.66 33 22.32 33 23 C33.99 23 34.98 23 36 23 C36.495 26.96 36.495 26.96 37 31 C37.66 31 38.32 31 39 31 C39 31.99 39 32.98 39 34 C39.99 34 40.98 34 42 34 C42 36.31 42 38.62 42 41 C42.66 41.33 43.32 41.66 44 42 C44.33 41.01 44.66 40.02 45 39 C45.67720698 49.93205549 46.13505741 60.85914738 46.25 71.8125 C46.2819043 73.32263672 46.2819043 73.32263672 46.31445312 74.86328125 C46.3419795 80.71460183 45.75061785 84.81001843 43 90 C41.68 90 40.36 90 39 90 C38.505 91.485 38.505 91.485 38 93 C31.94285714 97 31.94285714 97 27 97 C27 97.66 27 98.32 27 99 C21.16437367 103.24409188 15.09404202 104.28955274 8 104 C8 104.99 8 105.98 8 107 C7.34 107 6.68 107 6 107 C6 107.66 6 108.32 6 109 C3.50638429 107.79618552 1.31856917 106.54571278 -1 105 C-1.99 105 -2.98 105 -4 105 C-4 103.68 -4 102.36 -4 101 C-6.97 101 -9.94 101 -13 101 C-13 101.66 -13 102.32 -13 103 C-14.32 103 -15.64 103 -17 103 C-18 95.25 -18 95.25 -18 93 C-20.85378689 91.44279665 -23.4413266 90.57104036 -26.625 89.9375 C-28.98190335 89.46377026 -30.84656316 89.07671842 -33 88 C-33 86.02 -33 84.04 -33 82 C-34.32 82 -35.64 82 -37 82 C-37.33 71.77 -37.66 61.54 -38 51 C-38.33 58.26 -38.66 65.52 -39 73 C-39.66 72.67 -40.32 72.34 -41 72 C-41.09920549 66.84055127 -41.17162646 61.68166311 -41.21972656 56.52148438 C-41.2397871 54.76780521 -41.26704251 53.01419247 -41.30175781 51.26074219 C-41.35052302 48.73355682 -41.37302392 46.20725909 -41.390625 43.6796875 C-41.41127014 42.90132538 -41.43191528 42.12296326 -41.45318604 41.3210144 C-41.45533826 36.04728498 -40.37290417 33.24709946 -37 29 C-36.34 28.01 -35.68 27.02 -35 26 C-34.34 26 -33.68 26 -33 26 C-33 24.68 -33 23.36 -33 22 C-30.36 21.34 -27.72 20.68 -25 20 C-25 19.34 -25 18.68 -25 18 C-24.443125 17.773125 -23.88625 17.54625 -23.3125 17.3125 C-20.8073054 16.04516413 -20.8073054 16.04516413 -18.6875 13.5 C-15.40954893 10.45074319 -13.30596389 9.92873731 -9 9 C-8.67 7.35 -8.34 5.7 -8 4 C-7.01 4 -6.02 4 -5 4 C-5 4.66 -5 5.32 -5 6 C-4.34 6 -3.68 6 -3 6 C-3.495 3.525 -3.495 3.525 -4 1 C-3.34 1 -2.68 1 -2 1 C-2 2.65 -2 4.3 -2 6 C-1.34 6 -0.68 6 0 6 C0 4.02 0 2.04 0 0 Z " fill="#081E54" transform="translate(73,14)"/>
<path d="M0 0 C0.99 0 1.98 0 3 0 C2.67 1.32 2.34 2.64 2 4 C3.32 3.67 4.64 3.34 6 3 C6 3.99 6 4.98 6 6 C6.66 6.33 7.32 6.66 8 7 C8 8.65 8 10.3 8 12 C8.721875 11.34 9.44375 10.68 10.1875 10 C13.21597933 7.8464147 14.39703406 7.58823246 18 8 C18.1546875 8.9590625 18.1546875 8.9590625 18.3125 9.9375 C18.539375 10.618125 18.76625 11.29875 19 12 C19.99 12.33 20.98 12.66 22 13 C23.80162669 15.52227736 24.04839136 16.64513 23.625 19.75 C23.41875 20.4925 23.2125 21.235 23 22 C23.99 21.34 24.98 20.68 26 20 C29.6875 20.375 29.6875 20.375 33 21 C33 21.66 33 22.32 33 23 C33.99 23 34.98 23 36 23 C36.495 26.96 36.495 26.96 37 31 C37.66 31 38.32 31 39 31 C39 31.99 39 32.98 39 34 C39.99 34 40.98 34 42 34 C42 36.31 42 38.62 42 41 C42.66 41.33 43.32 41.66 44 42 C44.33 41.01 44.66 40.02 45 39 C45.67720698 49.93205549 46.13505741 60.85914738 46.25 71.8125 C46.2819043 73.32263672 46.2819043 73.32263672 46.31445312 74.86328125 C46.3419795 80.71460183 45.75061785 84.81001843 43 90 C41.68 90 40.36 90 39 90 C38.505 91.485 38.505 91.485 38 93 C31.94285714 97 31.94285714 97 27 97 C27 97.66 27 98.32 27 99 C21.16437367 103.24409188 15.09404202 104.28955274 8 104 C8 104.99 8 105.98 8 107 C7.34 107 6.68 107 6 107 C6 107.66 6 108.32 6 109 C3.50638429 107.79618552 1.31856917 106.54571278 -1 105 C-1.99 105 -2.98 105 -4 105 C-4 103.68 -4 102.36 -4 101 C-6.97 101 -9.94 101 -13 101 C-13 101.66 -13 102.32 -13 103 C-14.32 103 -15.64 103 -17 103 C-18 95.25 -18 95.25 -18 93 C-20.85378689 91.44279665 -23.4413266 90.57104036 -26.625 89.9375 C-28.98190335 89.46377026 -30.84656316 89.07671842 -33 88 C-33 86.02 -33 84.04 -33 82 C-34.32 82 -35.64 82 -37 82 C-37.33 71.77 -37.66 61.54 -38 51 C-38.33 58.26 -38.66 65.52 -39 73 C-39.66 72.67 -40.32 72.34 -41 72 C-41.09920549 66.84055127 -41.17162646 61.68166311 -41.21972656 56.52148438 C-41.2397871 54.76780521 -41.26704251 53.01419247 -41.30175781 51.26074219 C-41.35052302 48.73355682 -41.37302392 46.20725909 -41.390625 43.6796875 C-41.41127014 42.90132538 -41.43191528 42.12296326 -41.45318604 41.3210144 C-41.45533826 36.04728498 -40.37290417 33.24709946 -37 29 C-36.34 28.01 -35.68 27.02 -35 26 C-34.34 26 -33.68 26 -33 26 C-33 24.68 -33 23.36 -33 22 C-30.36 21.34 -27.72 20.68 -25 20 C-25 19.34 -25 18.68 -25 18 C-24.443125 17.773125 -23.88625 17.54625 -23.3125 17.3125 C-20.8073054 16.04516413 -20.8073054 16.04516413 -18.6875 13.5 C-15.40954893 10.45074319 -13.30596389 9.92873731 -9 9 C-8.67 7.35 -8.34 5.7 -8 4 C-7.01 4 -6.02 4 -5 4 C-5 4.66 -5 5.32 -5 6 C-4.34 6 -3.68 6 -3 6 C-3.495 3.525 -3.495 3.525 -4 1 C-3.34 1 -2.68 1 -2 1 C-2 2.65 -2 4.3 -2 6 C-1.34 6 -0.68 6 0 6 C0 4.02 0 2.04 0 0 Z M-19.34765625 31.75390625 C-23.73624615 34.4527717 -28.3918684 36.6959342 -33 39 C-33 53.19 -33 67.38 -33 82 C-27.39 84.97 -21.78 87.94 -16 91 C-14.35 92.32 -12.7 93.64 -11 95 C-7.40100449 96.70478735 -3.9148564 98.21702872 0 99 C0 99.66 0 100.32 0 101 C0.99 100.855625 1.98 100.71125 3 100.5625 C6.99409465 99.99074821 10.99532937 99.49180166 15 99 C14.01 98.505 14.01 98.505 13 98 C13.33 97.34 13.66 96.68 14 96 C15.890625 95.54296875 15.890625 95.54296875 18.25 95.1875 C22.80426481 94.27955247 25.09845743 92.7439259 28 89 C28 88.34 28 87.68 28 87 C28.53625 86.9175 29.0725 86.835 29.625 86.75 C33.13782043 85.64068829 36.382592 83.617408 39 81 C39.08874135 77.89748799 39.11518455 74.8173188 39.09765625 71.71484375 C39.0962413 70.78402481 39.09482635 69.85320587 39.09336853 68.8941803 C39.08775172 65.90858809 39.0751964 62.92306971 39.0625 59.9375 C39.05748716 57.91862087 39.05292388 55.89974057 39.04882812 53.88085938 C39.03777683 48.92054428 39.02050095 43.96028468 39 39 C36.41989804 37.51494131 33.83622441 36.03682689 31.25 34.5625 C30.52039063 34.14162109 29.79078125 33.72074219 29.0390625 33.28710938 C28.33007812 32.88427734 27.62109375 32.48144531 26.890625 32.06640625 C26.24125977 31.69459229 25.59189453 31.32277832 24.92285156 30.93969727 C22.96172866 29.9812968 21.13035565 29.4496957 19 29 C19 28.34 19 27.68 19 27 C18.33613281 26.67386719 17.67226562 26.34773438 16.98828125 26.01171875 C9.53437239 22.32284999 9.53437239 22.32284999 6 20.1875 C-0.71267031 16.20185201 -13.47729769 27.83800714 -19.34765625 31.75390625 Z " fill="#0350A0" transform="translate(73,14)"/>
<path d="M0 0 C0.66 0.33 1.32 0.66 2 1 C1.01 1.33 0.02 1.66 -1 2 C-0.67 4.97 -0.34 7.94 0 11 C0.66 10.67 1.32 10.34 2 10 C2 19.24 2 28.48 2 38 C1.34 37.67 0.68 37.34 0 37 C-0.33 37.66 -0.66 38.32 -1 39 C0.98 39.33 2.96 39.66 5 40 C4.75552124 38.98063354 4.75552124 38.98063354 4.50610352 37.94067383 C3.92388801 34.55775738 3.88773533 31.38219836 3.90234375 27.94921875 C3.9037587 27.29041214 3.90517365 26.63160553 3.90663147 25.95283508 C3.912195 23.86434238 3.92474053 21.77595989 3.9375 19.6875 C3.94251972 18.26497551 3.9470818 16.84244934 3.95117188 15.41992188 C3.96215243 11.94657923 3.97939165 8.47330039 4 5 C4.66 5 5.32 5 6 5 C6 16.22 6 27.44 6 39 C7.98 39 9.96 39 12 39 C12 33.06 12 27.12 12 21 C15.82118713 24.82118713 16.125 29.18054082 16.125 34.375 C16.09316134 35.91690094 16.05482724 37.45874525 16 39 C17.98 39 19.96 39 22 39 C22 27.78 22 16.56 22 5 C22.66 5 23.32 5 24 5 C24 16.22 24 27.44 24 39 C25.65 39 27.3 39 29 39 C29 33.72 29 28.44 29 23 C31.31 23 33.62 23 36 23 C36.33 21.68 36.66 20.36 37 19 C38.32 19.66 39.64 20.32 41 21 C41 17.37 41 13.74 41 10 C40.01 9.67 39.02 9.34 38 9 C39.32 9 40.64 9 42 9 C42 18.9 42 28.8 42 39 C43.65 39 45.3 39 47 39 C47 28.77 47 18.54 47 8 C48.32 8 49.64 8 51 8 C51 6.02 51 4.04 51 2 C53.8125 1.375 53.8125 1.375 57 1 C57.99 1.66 58.98 2.32 60 3 C60.5045369 5.70735161 60.77251725 8.26257334 61 11 C61.21052002 12.61140869 61.21052002 12.61140869 61.42529297 14.25537109 C62.51030058 23.09348896 63.58441569 32.34976493 61 41 C56.17161388 47.17388704 48.93172862 50.08815038 41.78173828 52.84423828 C39.0341123 53.98582696 36.67166266 55.3602746 34.15234375 56.93359375 C30.40820669 59.0486852 30.40820669 59.0486852 27.01953125 58.64453125 C26.02308594 58.10183594 25.02664062 57.55914062 24 57 C23.30825684 56.62536621 22.61651367 56.25073242 21.90380859 55.86474609 C19.4700829 54.51653041 17.0781657 53.11056029 14.6875 51.6875 C13.06687378 50.73227926 11.44578142 49.77784893 9.82421875 48.82421875 C9.11354248 48.40229248 8.40286621 47.98036621 7.6706543 47.5456543 C3.81025756 45.31143072 -0.1009824 43.16612089 -4 41 C-4 28.13 -4 15.26 -4 2 C-2.68 1.34 -1.36 0.68 0 0 Z " fill="#041953" transform="translate(47,53)"/>
<path d="M0 0 C3.17742353 1.65490809 6.18525697 3.45881479 9.16796875 5.44140625 C11.10995074 6.72439886 11.10995074 6.72439886 14 7.5625 C14 8.2225 14 8.8825 14 9.5625 C14.57975586 9.68488037 15.15951172 9.80726074 15.75683594 9.93334961 C18.05758777 10.5786519 19.82119497 11.44399067 21.890625 12.62890625 C22.59960938 13.03173828 23.30859375 13.43457031 24.0390625 13.84960938 C24.76867187 14.27048828 25.49828125 14.69136719 26.25 15.125 C26.99507813 15.54974609 27.74015625 15.97449219 28.5078125 16.41210938 C30.34098961 17.45796042 32.17082677 18.50966192 34 19.5625 C34.07409532 25.48898574 34.12857616 31.41520253 34.16479492 37.34204102 C34.17989179 39.35869034 34.20037115 41.37530679 34.22631836 43.3918457 C34.26266211 46.28865671 34.2797172 49.18503406 34.29296875 52.08203125 C34.30845261 52.98524612 34.32393646 53.888461 34.33988953 54.81904602 C34.34011612 55.65969101 34.34034271 56.500336 34.34057617 57.36645508 C34.35056892 58.47565056 34.35056892 58.47565056 34.36076355 59.60725403 C33.89486342 62.13231333 32.95923692 62.95287539 31 64.5625 C26.55555556 67.5625 26.55555556 67.5625 23 67.5625 C22.505 69.0475 22.505 69.0475 22 70.5625 C17.68838753 74.87411247 15.18496223 75.95613115 9 76.5625 C8.67 77.2225 8.34 77.8825 8 78.5625 C8.99 79.0575 8.99 79.0575 10 79.5625 C8.43883181 79.90201619 6.87598662 80.23382544 5.3125 80.5625 C4.44238281 80.748125 3.57226562 80.93375 2.67578125 81.125 C0.06287036 81.55222047 -2.35813038 81.63866201 -5 81.5625 C-5 80.9025 -5 80.2425 -5 79.5625 C-5.55816406 79.44519531 -6.11632812 79.32789062 -6.69140625 79.20703125 C-9.28984691 78.48157827 -11.52262523 77.45185601 -13.9375 76.25 C-15.18853516 75.63705078 -15.18853516 75.63705078 -16.46484375 75.01171875 C-19 73.5625 -19 73.5625 -24 69.5625 C-30.93 66.0975 -30.93 66.0975 -38 62.5625 C-38 48.3725 -38 34.1825 -38 19.5625 C-33.71 17.2525 -29.42 14.9425 -25 12.5625 C-22.5393331 11.03674415 -20.09609859 9.48169391 -17.6875 7.875 C-4.56973642 -0.6664199 -4.56973642 -0.6664199 0 0 Z M-9.8046875 6.73828125 C-11.51591797 7.73311523 -11.51591797 7.73311523 -13.26171875 8.74804688 C-14.46621631 9.45691151 -15.67064275 10.165897 -16.875 10.875 C-18.07127239 11.57285254 -19.26788352 12.27012478 -20.46484375 12.96679688 C-23.64870188 14.82280924 -26.82714076 16.68772554 -30 18.5625 C-31.41019409 19.14257812 -31.41019409 19.14257812 -32.84887695 19.734375 C-35.4356968 21.52442211 -35.4356968 21.52442211 -35.56762695 25.4831543 C-35.56683605 27.11788956 -35.53862389 28.75275864 -35.48828125 30.38671875 C-35.48120651 31.24811966 -35.47413177 32.10952057 -35.46684265 32.99702454 C-35.43884839 35.74889913 -35.37610323 38.49874033 -35.3125 41.25 C-35.28742352 43.11520499 -35.26460921 44.98044187 -35.24414062 46.84570312 C-35.18900551 51.41875248 -35.10270033 55.9902815 -35 60.5625 C-29.59980758 63.55551224 -29.59980758 63.55551224 -24.19384766 66.53808594 C-20.37916741 68.64437115 -16.60051766 70.77876466 -12.8984375 73.078125 C-12.27855957 73.45646484 -11.65868164 73.83480469 -11.02001953 74.22460938 C-9.34305978 75.25530353 -7.67891408 76.30676211 -6.015625 77.359375 C-2.10417988 78.91989974 -0.84684432 78.11025145 3 76.5625 C4.92634485 75.5514774 6.82474755 74.4858366 8.6953125 73.375 C9.74074219 72.75882812 10.78617188 72.14265625 11.86328125 71.5078125 C12.93964844 70.86585937 14.01601562 70.22390625 15.125 69.5625 C17.27283769 68.29065319 19.42125162 67.01977887 21.5703125 65.75 C22.51664551 65.18667969 23.46297852 64.62335938 24.43798828 64.04296875 C26.58176981 62.80417599 28.78542885 61.66978558 31 60.5625 C31 47.6925 31 34.8225 31 21.5625 C25.72 18.5925 20.44 15.6225 15 12.5625 C13.36417969 11.62277344 11.72835937 10.68304688 10.04296875 9.71484375 C9.05780273 9.14926758 9.05780273 9.14926758 8.05273438 8.57226562 C6.75587902 7.82674354 5.46179883 7.0763816 4.16992188 6.32226562 C-1.85099963 2.88433763 -3.93373111 3.30424852 -9.8046875 6.73828125 Z " fill="#CFECF1" transform="translate(78,33.4375)"/>
<path d="M0 0 C10.61109825 0.67423015 10.61109825 0.67423015 14.75 4.625 C15.1625 5.40875 15.575 6.1925 16 7 C15.34 7 14.68 7 14 7 C14.350625 7.763125 14.70125 8.52625 15.0625 9.3125 C16 12 16 12 15 15 C16.32 15 17.64 15 19 15 C19 14.34 19 13.68 19 13 C21.97 13 24.94 13 28 13 C28 14.32 28 15.64 28 17 C29.32 16.67 30.64 16.34 32 16 C32 16.66 32 17.32 32 18 C32.928125 18.4640625 32.928125 18.4640625 33.875 18.9375 C35.25 19.625 36.625 20.3125 38 21 C38 20.34 38 19.68 38 19 C38.66 19 39.32 19 40 19 C40 18.01 40 17.02 40 16 C40.80824219 15.89042969 41.61648437 15.78085938 42.44921875 15.66796875 C43.51785156 15.50941406 44.58648437 15.35085937 45.6875 15.1875 C46.74324219 15.03667969 47.79898438 14.88585937 48.88671875 14.73046875 C52.10964336 13.97427439 54.23263908 12.76897852 57 11 C57.66 11 58.32 11 59 11 C59 10.34 59 9.68 59 9 C60.2375 8.5875 61.475 8.175 62.75 7.75 C65.68283469 6.6760042 66.98753519 6.01246481 69.25 3.75 C69.8275 3.1725 70.405 2.595 71 2 C73.25 2.25 73.25 2.25 75 3 C71.66666667 6.33333333 68.33333333 9.66666667 65 13 C63.7625 14.36125 63.7625 14.36125 62.5 15.75 C59.35039844 18.58464141 57.1258658 19 53 19 C50.40676924 21.91738461 48.16472869 24.75290697 46 28 C43.69 27.67 41.38 27.34 39 27 C39 27.66 39 28.32 39 29 C39.99 29 40.98 29 42 29 C42 29.66 42 30.32 42 31 C40.35 31.33 38.7 31.66 37 32 C36.505 30.515 36.505 30.515 36 29 C34.35 29.33 32.7 29.66 31 30 C30.67 28.68 30.34 27.36 30 26 C28.865625 26.185625 27.73125 26.37125 26.5625 26.5625 C24.7990625 26.7790625 24.7990625 26.7790625 23 27 C22.67 26.67 22.34 26.34 22 26 C21.01 26 20.02 26 19 26 C18.01 26 17.02 26 16 26 C15 25 15 25 14.9375 22.4375 C14.958125 21.633125 14.97875 20.82875 15 20 C14.236875 20.20625 13.47375 20.4125 12.6875 20.625 C10 21 10 21 7 19 C6.855625 18.175 6.71125 17.35 6.5625 16.5 C6.376875 15.675 6.19125 14.85 6 14 C4.06669397 12.90833725 4.06669397 12.90833725 2 12 C-0.34178166 8.67220501 -0.62427933 4.98263915 -1 1 C-0.67 0.67 -0.34 0.34 0 0 Z " fill="#023986" transform="translate(41,102)"/>
<path d="M0 0 C0.99 0 1.98 0 3 0 C2.67 1.32 2.34 2.64 2 4 C3.32 3.67 4.64 3.34 6 3 C5.505 3.598125 5.01 4.19625 4.5 4.8125 C2.71723582 6.97029994 2.71723582 6.97029994 3 10 C1.35 10.33 -0.3 10.66 -2 11 C-2.33 11.99 -2.66 12.98 -3 14 C-2.01 14.33 -1.02 14.66 0 15 C-2 17 -2 17 -5.125 17.125 C-6.07375 17.08375 -7.0225 17.0425 -8 17 C-8.33 17.66 -8.66 18.32 -9 19 C-9.639375 19.144375 -10.27875 19.28875 -10.9375 19.4375 C-13.38210855 19.86165035 -13.38210855 19.86165035 -15 23 C-15.99 23.33 -16.98 23.66 -18 24 C-18.33 24.99 -18.66 25.98 -19 27 C-21.31 26.67 -23.62 26.34 -26 26 C-26 27.32 -26 28.64 -26 30 C-26.66 30 -27.32 30 -28 30 C-28 29.01 -28 28.02 -28 27 C-28.99 27 -29.98 27 -31 27 C-30.896875 27.9075 -30.79375 28.815 -30.6875 29.75 C-31 33 -31 33 -33.375 35 C-34.24125 35.66 -35.1075 36.32 -36 37 C-37.87920843 41.421904 -38.29162379 45.37332794 -38.4140625 50.1484375 C-38.43342865 50.80582916 -38.4527948 51.46322083 -38.4727478 52.14053345 C-38.53202461 54.21856135 -38.57871794 56.29664624 -38.625 58.375 C-38.66322778 59.7929915 -38.70228223 61.21096097 -38.7421875 62.62890625 C-38.83768171 66.08573461 -38.92190189 69.54272983 -39 73 C-39.66 72.67 -40.32 72.34 -41 72 C-41.09920549 66.84055127 -41.17162646 61.68166311 -41.21972656 56.52148438 C-41.2397871 54.76780521 -41.26704251 53.01419247 -41.30175781 51.26074219 C-41.35052302 48.73355682 -41.37302392 46.20725909 -41.390625 43.6796875 C-41.41127014 42.90132538 -41.43191528 42.12296326 -41.45318604 41.3210144 C-41.45533826 36.04728498 -40.37290417 33.24709946 -37 29 C-36.34 28.01 -35.68 27.02 -35 26 C-34.34 26 -33.68 26 -33 26 C-33 24.68 -33 23.36 -33 22 C-30.36 21.34 -27.72 20.68 -25 20 C-25 19.34 -25 18.68 -25 18 C-24.443125 17.773125 -23.88625 17.54625 -23.3125 17.3125 C-20.8073054 16.04516413 -20.8073054 16.04516413 -18.6875 13.5 C-15.40954893 10.45074319 -13.30596389 9.92873731 -9 9 C-8.67 7.35 -8.34 5.7 -8 4 C-7.01 4 -6.02 4 -5 4 C-5 4.66 -5 5.32 -5 6 C-4.34 6 -3.68 6 -3 6 C-3.495 3.525 -3.495 3.525 -4 1 C-3.34 1 -2.68 1 -2 1 C-2 2.65 -2 4.3 -2 6 C-1.34 6 -0.68 6 0 6 C0 4.02 0 2.04 0 0 Z " fill="#0358AB" transform="translate(73,14)"/>
<path d="M0 0 C2.4375 0.8125 2.4375 0.8125 5 2 C5.495 3.485 5.495 3.485 6 5 C6.66 5.33 7.32 5.66 8 6 C8 6.66 8 7.32 8 8 C7.27683594 7.78601562 6.55367187 7.57203125 5.80859375 7.3515625 C2.31910232 6.91476941 1.07565155 7.62003654 -1.9375 9.375 C-2.89269531 9.92671875 -3.84789062 10.4784375 -4.83203125 11.046875 C-9.4350404 13.88473514 -13.95426028 16.83991572 -18.4453125 19.8515625 C-22 22 -22 22 -31 26 C-31.33 40.19 -31.66 54.38 -32 69 C-33.32 69 -34.64 69 -36 69 C-36.26715774 62.98685465 -36.50012907 56.97370276 -36.7019043 50.95800781 C-36.77526218 48.91305568 -36.85785121 46.86841253 -36.94995117 44.82421875 C-37.0809563 41.88054062 -37.17839777 38.93733698 -37.26953125 35.9921875 C-37.31721146 35.0825827 -37.36489166 34.17297791 -37.41401672 33.23580933 C-37.51860784 28.82397996 -37.41904558 25.91015745 -34.6081543 22.37548828 C-32 20 -32 20 -30 20 C-30 18.02 -30 16.04 -30 14 C-29.01 14 -28.02 14 -27 14 C-27 14.99 -27 15.98 -27 17 C-26.34 17 -25.68 17 -25 17 C-25 15.68 -25 14.36 -25 13 C-22.69 13.33 -20.38 13.66 -18 14 C-17.896875 13.360625 -17.79375 12.72125 -17.6875 12.0625 C-17.3471875 11.0415625 -17.3471875 11.0415625 -17 10 C-16.01 9.67 -15.02 9.34 -14 9 C-13.34 8.01 -12.68 7.02 -12 6 C-9.875 4.8125 -9.875 4.8125 -8 4 C-8 3.67 -8 3.34 -8 3 C-5.36 3 -2.72 3 0 3 C0 2.01 0 1.02 0 0 Z " fill="#0673C3" transform="translate(72,27)"/>
<path d="M0 0 C0.33 0 0.66 0 1 0 C1.04945571 5.76577504 1.0857461 11.53142646 1.10986328 17.29736328 C1.11991783 19.25864818 1.13356333 21.21991811 1.15087891 23.18115234 C1.17515113 26.00101418 1.18648859 28.82067772 1.1953125 31.640625 C1.20563507 32.51680481 1.21595764 33.39298462 1.22659302 34.29571533 C1.22674408 35.11626404 1.22689514 35.93681274 1.22705078 36.78222656 C1.231492 37.50170471 1.23593323 38.22118286 1.24050903 38.96246338 C0.95831285 41.35316388 0.23128603 42.94209578 -1 45 C-4.20445036 47.48621148 -7.9767846 49.35628554 -12 50 C-12 51.65 -12 53.3 -12 55 C-12.99 55 -13.98 55 -15 55 C-15 55.66 -15 56.32 -15 57 C-15.99 57 -16.98 57 -18 57 C-18 57.66 -18 58.32 -18 59 C-18.66 59 -19.32 59 -20 59 C-20 59.99 -20 60.98 -20 62 C-23.67410785 63.17571451 -27.16929183 63.07366746 -31 63 C-31 63.99 -31 64.98 -31 66 C-31.66 66 -32.32 66 -33 66 C-33 66.66 -33 67.32 -33 68 C-35.49361571 66.79618552 -37.68143083 65.54571278 -40 64 C-40.99 64 -41.98 64 -43 64 C-43 62.68 -43 61.36 -43 60 C-45.97 60 -48.94 60 -52 60 C-52 60.66 -52 61.32 -52 62 C-53.32 62 -54.64 62 -56 62 C-57 54.25 -57 54.25 -57 52 C-59.85378689 50.44279665 -62.4413266 49.57104036 -65.625 48.9375 C-67.98190335 48.46377026 -69.84656316 48.07671842 -72 47 C-72 45.02 -72 43.04 -72 41 C-68.2377157 42.4523524 -64.61792623 44.0937251 -61 45.875 C-59.989375 46.36742187 -58.97875 46.85984375 -57.9375 47.3671875 C-55.00247033 48.99862687 -52.60055057 50.88840486 -50 53 C-47.69034152 54.05352843 -45.3570226 55.05719096 -43 56 C-41.65986503 56.65288627 -40.32258472 57.31225595 -39 58 C-39 58.66 -39 59.32 -39 60 C-36.8509548 59.57855998 -34.70577212 59.13737951 -32.5625 58.6875 C-31.36753906 58.44386719 -30.17257813 58.20023438 -28.94140625 57.94921875 C-27.97074219 57.63597656 -27.00007813 57.32273438 -26 57 C-25.67 56.01 -25.34 55.02 -25 54 C-24.37351563 53.97421875 -23.74703125 53.9484375 -23.1015625 53.921875 C-22.28429687 53.86515625 -21.46703125 53.8084375 -20.625 53.75 C-19.81289062 53.70359375 -19.00078125 53.6571875 -18.1640625 53.609375 C-15.84427407 53.2247459 -15.84427407 53.2247459 -14.8984375 51.140625 C-14.60195312 50.43421875 -14.30546875 49.7278125 -14 49 C-11.80583953 46.3952364 -9.36740683 44.96380233 -6.375 43.375 C-3.49917615 41.94660084 -3.49917615 41.94660084 -1 40 C-0.83970312 37.04470496 -0.74042672 34.11017543 -0.68359375 31.15234375 C-0.6524221 29.82270348 -0.6524221 29.82270348 -0.62062073 28.46620178 C-0.555026 25.623383 -0.49619448 22.78046883 -0.4375 19.9375 C-0.3943242 18.01496394 -0.35071022 16.09243766 -0.30664062 14.16992188 C-0.19933457 9.44671332 -0.09809549 4.72340847 0 0 Z " fill="#0668BC" transform="translate(112,55)"/>
<path d="M0 0 C1.65 0 3.3 0 5 0 C5.99 3.3 6.98 6.6 8 10 C8.33 6.7 8.66 3.4 9 0 C10.65 0 12.3 0 14 0 C14 11.55 14 23.1 14 35 C12.35 35 10.7 35 9 35 C8.96261719 34.38253906 8.92523438 33.76507813 8.88671875 33.12890625 C8.40869226 26.97080025 7.14796059 21.79015463 5 16 C4.67 21.94 4.34 27.88 4 34 C2.68 34 1.36 34 0 34 C0 22.78 0 11.56 0 0 Z " fill="#EEEFF0" transform="translate(54,57)"/>
<path d="M0 0 C1.09207257 3.27621771 1.01247823 6.02357836 0.96875 9.4453125 C0.9995022 11.95930511 1.21990455 14.37748221 1.5 16.875 C2.34752537 25.21894696 2.07811715 33.62410572 2 42 C2.70253906 42.26554687 3.40507813 42.53109375 4.12890625 42.8046875 C7.18282083 44.07611316 10.02953758 45.54817296 12.9375 47.125 C14.64486328 48.04152344 14.64486328 48.04152344 16.38671875 48.9765625 C18.85866074 50.33394452 21.25960399 51.76871523 23.64453125 53.2734375 C31.69967919 58.49303844 31.69967919 58.49303844 41.03515625 58.79296875 C43.5367864 57.78336453 45.70087345 56.41067352 48 55 C50.09504262 53.91962043 52.19952676 52.85737688 54.3125 51.8125 C55.38113281 51.28269531 56.44976562 50.75289062 57.55078125 50.20703125 C58.35902344 49.80871094 59.16726562 49.41039062 60 49 C58.70573179 52.88280464 56.42766704 54.92515942 53 57 C49.1875 57.6875 49.1875 57.6875 46 58 C45.505 58.99 45.505 58.99 45 60 C45.99 60.495 45.99 60.495 47 61 C45.43883181 61.33951619 43.87598662 61.67132544 42.3125 62 C41.44238281 62.185625 40.57226562 62.37125 39.67578125 62.5625 C37.06287036 62.98972047 34.64186962 63.07616201 32 63 C32 62.34 32 61.68 32 61 C31.44183594 60.88269531 30.88367188 60.76539063 30.30859375 60.64453125 C27.71015309 59.91907827 25.47737477 58.88935601 23.0625 57.6875 C22.22847656 57.27886719 21.39445312 56.87023437 20.53515625 56.44921875 C18 55 18 55 15.79858398 53.14379883 C12.59037433 50.68621452 9.31636156 48.99155457 5.6875 47.25 C4.71973633 46.77626953 4.71973633 46.77626953 3.73242188 46.29296875 C2.15765541 45.52308292 0.5791996 44.76075109 -1 44 C-1.02464513 37.8944529 -1.04283371 31.78893449 -1.05493164 25.68334961 C-1.05997288 23.60456844 -1.06680574 21.52579084 -1.07543945 19.44702148 C-1.08751422 16.46597414 -1.09323024 13.48497351 -1.09765625 10.50390625 C-1.10539818 9.10078941 -1.10539818 9.10078941 -1.11329651 7.66932678 C-1.11337204 6.80850998 -1.11344757 5.94769318 -1.11352539 5.06079102 C-1.115746 4.29912125 -1.11796661 3.53745148 -1.12025452 2.75270081 C-1 1 -1 1 0 0 Z " fill="#88E8F6" transform="translate(41,52)"/>
<path d="M0 0 C0.66 0.33 1.32 0.66 2 1 C1.01 1.33 0.02 1.66 -1 2 C-0.67 4.97 -0.34 7.94 0 11 C0.66 10.67 1.32 10.34 2 10 C2 19.24 2 28.48 2 38 C1.34 37.67 0.68 37.34 0 37 C-0.33 37.66 -0.66 38.32 -1 39 C2.56045177 40.18681726 5.43808337 40.09689832 9.1875 40.0625 C10.45980469 40.05347656 11.73210938 40.04445312 13.04296875 40.03515625 C14.01878906 40.02355469 14.99460937 40.01195312 16 40 C15.67 40.66 15.34 41.32 15 42 C14.67 42 14.34 42 14 42 C14 42.66 14 43.32 14 44 C15.485 44.495 15.485 44.495 17 45 C16.67 45.66 16.34 46.32 16 47 C15.34 47 14.68 47 14 47 C14.66 48.65 15.32 50.3 16 52 C13.6032896 50.73079864 11.20761907 49.45969813 8.8125 48.1875 C8.13896484 47.83107422 7.46542969 47.47464844 6.77148438 47.10742188 C6.11083984 46.75615234 5.45019531 46.40488281 4.76953125 46.04296875 C4.16729736 45.72352295 3.56506348 45.40407715 2.94458008 45.07495117 C2.30286865 44.72021729 1.66115723 44.3654834 1 44 C0.10732422 43.64486328 -0.78535156 43.28972656 -1.70507812 42.92382812 C-4 41 -4 41 -4.56762695 37.0793457 C-4.56683605 35.44461044 -4.53862389 33.80974136 -4.48828125 32.17578125 C-4.48120651 31.31438034 -4.47413177 30.45297943 -4.46684265 29.56547546 C-4.43884839 26.81360087 -4.37610323 24.06375967 -4.3125 21.3125 C-4.28742352 19.44729501 -4.26460921 17.58205813 -4.24414062 15.71679688 C-4.18900551 11.14374752 -4.10270033 6.5722185 -4 2 C-2.125 0.9375 -2.125 0.9375 0 0 Z " fill="#11255A" transform="translate(47,53)"/>
<path d="M0 0 C3.96 0 7.92 0 12 0 C12 1.65 12 3.3 12 5 C9.69 5 7.38 5 5 5 C5 8.3 5 11.6 5 15 C6.98 15 8.96 15 11 15 C11 16.32 11 17.64 11 19 C9.02 19 7.04 19 5 19 C5 24.28 5 29.56 5 35 C3.35 35 1.7 35 0 35 C0 23.45 0 11.9 0 0 Z " fill="#D2D4DF" transform="translate(71,57)"/>
<path d="M0 0 C2.25 0.25 2.25 0.25 4 1 C0.66666667 4.33333333 -2.66666667 7.66666667 -6 11 C-6.825 11.9075 -7.65 12.815 -8.5 13.75 C-11.13163261 16.11846935 -12.50410658 16.8057837 -16 17 C-16.33 16.67 -16.66 16.34 -17 16 C-18.11375 16.4640625 -18.11375 16.4640625 -19.25 16.9375 C-22 18 -22 18 -24.1875 18.4375 C-26.39847245 18.91493926 -26.39847245 18.91493926 -28 22 C-29.98 21.67 -31.96 21.34 -34 21 C-34.33 21.66 -34.66 22.32 -35 23 C-41.875 22.125 -41.875 22.125 -43 21 C-43.04080783 19.00041636 -43.04254356 16.99954746 -43 15 C-41.68 14.67 -40.36 14.34 -39 14 C-39 14.66 -39 15.32 -39 16 C-38.38125 16.309375 -37.7625 16.61875 -37.125 16.9375 C-35.75 17.625 -34.375 18.3125 -33 19 C-33 18.34 -33 17.68 -33 17 C-32.34 17 -31.68 17 -31 17 C-31 16.01 -31 15.02 -31 14 C-30.19175781 13.89042969 -29.38351563 13.78085938 -28.55078125 13.66796875 C-27.48214844 13.50941406 -26.41351563 13.35085937 -25.3125 13.1875 C-24.25675781 13.03667969 -23.20101562 12.88585937 -22.11328125 12.73046875 C-18.89035664 11.97427439 -16.76736092 10.76897852 -14 9 C-13.34 9 -12.68 9 -12 9 C-12 8.34 -12 7.68 -12 7 C-10.7625 6.5875 -9.525 6.175 -8.25 5.75 C-5.31716531 4.6760042 -4.01246481 4.01246481 -1.75 1.75 C-1.1725 1.1725 -0.595 0.595 0 0 Z " fill="#02408E" transform="translate(112,104)"/>
<path d="M0 0 C2.4375 0.8125 2.4375 0.8125 5 2 C5.495 3.485 5.495 3.485 6 5 C6.66 5.33 7.32 5.66 8 6 C8 6.66 8 7.32 8 8 C7.27683594 7.78601562 6.55367187 7.57203125 5.80859375 7.3515625 C2.31910232 6.91476941 1.07565155 7.62003654 -1.9375 9.375 C-2.89011719 9.92542969 -3.84273437 10.47585937 -4.82421875 11.04296875 C-8.91962445 13.56670584 -12.97123785 16.15664426 -16.96459961 18.83935547 C-20.85725279 21.41706871 -24.6863037 23.27561633 -29 25 C-29 24.01 -29 23.02 -29 22 C-28.01 21.67 -27.02 21.34 -26 21 C-25.67 18.36 -25.34 15.72 -25 13 C-22.69 13.33 -20.38 13.66 -18 14 C-17.896875 13.360625 -17.79375 12.72125 -17.6875 12.0625 C-17.3471875 11.0415625 -17.3471875 11.0415625 -17 10 C-16.01 9.67 -15.02 9.34 -14 9 C-13.34 8.01 -12.68 7.02 -12 6 C-9.875 4.8125 -9.875 4.8125 -8 4 C-8 3.67 -8 3.34 -8 3 C-5.36 3 -2.72 3 0 3 C0 2.01 0 1.02 0 0 Z " fill="#0362B6" transform="translate(72,27)"/>
<path d="M0 0 C0.66 0.66 1.32 1.32 2 2 C1.67 2.66 1.34 3.32 1 4 C2.65 3.67 4.3 3.34 6 3 C6 3.66 6 4.32 6 5 C5.01 5.495 5.01 5.495 4 6 C4 17.22 4 28.44 4 40 C5.32 40 6.64 40 8 40 C8 33.07 8 26.14 8 19 C9.87178071 22.74356142 10.24942415 23.50806195 9.9765625 27.328125 C9.925 28.12734375 9.8734375 28.9265625 9.8203125 29.75 C9.75585938 30.575 9.69140625 31.4 9.625 32.25 C9.56828125 33.09046875 9.5115625 33.9309375 9.453125 34.796875 C9.31209668 36.86529042 9.15738212 38.9327646 9 41 C7.02 41 5.04 41 3 41 C3 29.78 3 18.56 3 7 C2.22494481 10.87527594 1.87163541 13.86974268 1.8671875 17.74609375 C1.86589844 18.83083984 1.86460938 19.91558594 1.86328125 21.03320312 C1.86714844 22.15662109 1.87101562 23.28003906 1.875 24.4375 C1.87113281 25.55705078 1.86726563 26.67660156 1.86328125 27.83007812 C1.86457031 28.91611328 1.86585937 30.00214844 1.8671875 31.12109375 C1.86831543 32.1052124 1.86944336 33.08933105 1.87060547 34.10327148 C2.00610579 37.13668897 2.44295116 40.01754833 3 43 C-1.75 42.125 -1.75 42.125 -4 41 C-3.67 40.01 -3.34 39.02 -3 38 C-2.67 38.33 -2.34 38.66 -2 39 C-2 30.42 -2 21.84 -2 13 C-2.33 18.28 -2.66 23.56 -3 29 C-3.33 29 -3.66 29 -4 29 C-4.05784708 24.87505849 -4.09354407 20.75022056 -4.125 16.625 C-4.14175781 15.449375 -4.15851562 14.27375 -4.17578125 13.0625 C-4.18222656 11.94101562 -4.18867187 10.81953125 -4.1953125 9.6640625 C-4.20578613 8.62717285 -4.21625977 7.5902832 -4.22705078 6.52197266 C-3.92305918 3.14537774 -2.34179283 2.34179283 0 0 Z " fill="#26376D" transform="translate(50,51)"/>
<path d="M0 0 C4.29 0 8.58 0 13 0 C13 1.32 13 2.64 13 4 C11.68 4 10.36 4 9 4 C9 14.23 9 24.46 9 35 C7.35 35 5.7 35 4 35 C4 24.77 4 14.54 4 4 C2.68 4 1.36 4 0 4 C0 2.68 0 1.36 0 0 Z " fill="#E6E8F0" transform="translate(85,57)"/>
<path d="M0 0 C0.99 0 1.98 0 3 0 C3.33 2.64 3.66 5.28 4 8 C4.75925781 7.98839844 5.51851562 7.97679687 6.30078125 7.96484375 C7.29464844 7.95582031 8.28851563 7.94679688 9.3125 7.9375 C10.29863281 7.92589844 11.28476563 7.91429687 12.30078125 7.90234375 C15 8 15 8 18 9 C18 9.66 18 10.32 18 11 C15.03 10.505 15.03 10.505 12 10 C12 12.31 12 14.62 12 17 C12.99 17.33 13.98 17.66 15 18 C15 18.66 15 19.32 15 20 C17.74366697 21.12974522 20.37888214 22.10200673 23.25 22.875 C24.61125 23.431875 24.61125 23.431875 26 24 C26.875 26.125 26.875 26.125 27 28 C23.2089881 26.55049545 19.6125362 24.84827434 16 23 C16 22.34 16 21.68 16 21 C15.484375 20.9175 14.96875 20.835 14.4375 20.75 C10.88370031 19.65652317 8.13889419 18.01363024 5 16 C4.67 15.01 4.34 14.02 4 13 C1.99983534 11.79117904 1.99983534 11.79117904 0 11 C0.33 10.34 0.66 9.68 1 9 C-1.31 8.67 -3.62 8.34 -6 8 C-6 7.34 -6 6.68 -6 6 C-6.99 5.67 -7.98 5.34 -9 5 C-8.43410156 4.89042969 -7.86820312 4.78085937 -7.28515625 4.66796875 C-6.18494141 4.43013672 -6.18494141 4.43013672 -5.0625 4.1875 C-4.33160156 4.03667969 -3.60070312 3.88585937 -2.84765625 3.73046875 C-2.23792969 3.48941406 -1.62820312 3.24835937 -1 3 C-0.67 2.01 -0.34 1.02 0 0 Z " fill="#0654A9" transform="translate(76,20)"/>
<path d="M0 0 C3 2 3 2 3.47033691 3.80134583 C3.51428589 4.52794907 3.55823486 5.25455231 3.60351562 6.00317383 C3.65946899 6.82775589 3.71542236 7.65233795 3.77307129 8.50190735 C3.81702026 9.39459824 3.86096924 10.28728912 3.90625 11.20703125 C3.95825562 12.12457687 4.01026123 13.0421225 4.06384277 13.98747253 C4.16862698 15.93144036 4.26562132 17.87584121 4.35546875 19.82055664 C4.4990259 22.79233515 4.68565178 25.75934809 4.875 28.72851562 C4.97140071 30.61705406 5.06523468 32.50572562 5.15625 34.39453125 C5.21639282 35.28114944 5.27653564 36.16776764 5.33850098 37.08125305 C5.50509535 41.60187211 5.52945259 43.33937186 2.60546875 46.98779297 C1.74566406 47.65182129 0.88585937 48.31584961 0 49 C-0.6084375 49.59425781 -1.216875 50.18851563 -1.84375 50.80078125 C-6.35410674 54.91754554 -6.35410674 54.91754554 -9.9375 55.375 C-10.9584375 55.189375 -10.9584375 55.189375 -12 55 C-12 54.01 -12 53.02 -12 52 C-4.57142857 47.57142857 -4.57142857 47.57142857 -1 47 C-0.17869858 44.12586454 0.12230589 41.58400178 0.11352539 38.59863281 C0.11344986 37.7380426 0.11337433 36.87745239 0.11329651 35.99078369 C0.10813522 35.07085632 0.10297394 34.15092896 0.09765625 33.203125 C0.0962413 32.25435486 0.09482635 31.30558472 0.09336853 30.32806396 C0.08777742 27.30201038 0.07522652 24.27603117 0.0625 21.25 C0.05748385 19.19661565 0.05292115 17.14323014 0.04882812 15.08984375 C0.03781089 10.05986724 0.02055233 5.02994622 0 0 Z " fill="#0359AC" transform="translate(112,53)"/>
<path d="M0 0 C0.99 0 1.98 0 3 0 C2.67 1.32 2.34 2.64 2 4 C3.32 3.67 4.64 3.34 6 3 C5.505 3.598125 5.01 4.19625 4.5 4.8125 C2.71723582 6.97029994 2.71723582 6.97029994 3 10 C2.38511719 10.12117188 1.77023438 10.24234375 1.13671875 10.3671875 C0.32847656 10.53476562 -0.47976562 10.70234375 -1.3125 10.875 C-2.11300781 11.03742187 -2.91351563 11.19984375 -3.73828125 11.3671875 C-6.25301118 11.94478999 -6.25301118 11.94478999 -9 14 C-11.32387947 14.39387788 -13.65793749 14.73486085 -16 15 C-16.33 15.99 -16.66 16.98 -17 18 C-17.99 18 -18.98 18 -20 18 C-20 18.66 -20 19.32 -20 20 C-20.639375 20.12375 -21.27875 20.2475 -21.9375 20.375 C-22.618125 20.58125 -23.29875 20.7875 -24 21 C-24.33 21.66 -24.66 22.32 -25 23 C-27.64860427 23.59355614 -30.29197322 23.74209269 -33 24 C-33 23.34 -33 22.68 -33 22 C-30.36 21.34 -27.72 20.68 -25 20 C-25 19.34 -25 18.68 -25 18 C-24.443125 17.773125 -23.88625 17.54625 -23.3125 17.3125 C-20.8073054 16.04516413 -20.8073054 16.04516413 -18.6875 13.5 C-15.40954893 10.45074319 -13.30596389 9.92873731 -9 9 C-8.67 7.35 -8.34 5.7 -8 4 C-7.01 4 -6.02 4 -5 4 C-5 4.66 -5 5.32 -5 6 C-4.34 6 -3.68 6 -3 6 C-3.33 4.35 -3.66 2.7 -4 1 C-3.34 1 -2.68 1 -2 1 C-2 2.65 -2 4.3 -2 6 C-1.34 6 -0.68 6 0 6 C0 4.02 0 2.04 0 0 Z " fill="#033784" transform="translate(73,14)"/>
<path d="M0 0 C1.65 0 3.3 0 5 0 C5.21551241 11.3503202 4.5687311 22.66773031 4 34 C2.68 34 1.36 34 0 34 C0 22.78 0 11.56 0 0 Z " fill="#FAFAF7" transform="translate(54,57)"/>
<path d="M0 0 C0.33 1.32 0.66 2.64 1 4 C2.32 4.33 3.64 4.66 5 5 C4.67 5.33 4.34 5.66 4 6 C3.92773498 7.85287502 3.9161878 9.70833878 3.9375 11.5625 C3.94652344 12.57441406 3.95554687 13.58632812 3.96484375 14.62890625 C3.97644531 15.41136719 3.98804687 16.19382812 4 17 C2.02 17.66 0.04 18.32 -2 19 C-2 17.68 -2 16.36 -2 15 C-3.98 15 -5.96 15 -8 15 C-8 11.7 -8 8.4 -8 5 C-4.535 4.505 -4.535 4.505 -1 4 C-0.67 2.68 -0.34 1.36 0 0 Z " fill="#12255C" transform="translate(84,57)"/>
<path d="M0 0 C3.7622843 1.4523524 7.38207377 3.0937251 11 4.875 C12.010625 5.36742188 13.02125 5.85984375 14.0625 6.3671875 C17.02963983 8.01647533 19.522526 9.67736813 22 12 C22 12.99 22 13.98 22 15 C22.66 15 23.32 15 24 15 C24 15.66 24 16.32 24 17 C23.34 17 22.68 17 22 17 C22 17.66 22 18.32 22 19 C21.34 19 20.68 19 20 19 C20 19.66 20 20.32 20 21 C18.68 21 17.36 21 16 21 C15 13.25 15 13.25 15 11 C12.14621311 9.44279665 9.5586734 8.57104036 6.375 7.9375 C4.01809665 7.46377026 2.15343684 7.07671842 0 6 C0 4.02 0 2.04 0 0 Z " fill="#0457A9" transform="translate(40,96)"/>
<path d="M0 0 C0.66 0 1.32 0 2 0 C2 1.65 2 3.3 2 5 C2.721875 4.34 3.44375 3.68 4.1875 3 C7.21597933 0.8464147 8.39703406 0.58823246 12 1 C12.103125 1.639375 12.20625 2.27875 12.3125 2.9375 C12.6528125 3.9584375 12.6528125 3.9584375 13 5 C13.99 5.33 14.98 5.66 16 6 C17.80162669 8.52227736 18.04839136 9.64513 17.625 12.75 C17.315625 13.86375 17.315625 13.86375 17 15 C17.99 14.34 18.98 13.68 20 13 C22.6875 12.875 22.6875 12.875 25 13 C23.67649489 15.64701022 22.79571502 16.04357118 20 17 C15.54484203 16.76133082 12.11792255 16.36735636 9 13 C9 11.68 9 10.36 9 9 C11.97 9.495 11.97 9.495 15 10 C15 9.34 15 8.68 15 8 C8.07 7.505 8.07 7.505 1 7 C0.67 4.69 0.34 2.38 0 0 Z " fill="#033E90" transform="translate(79,21)"/>
<path d="M0 0 C0.33 0 0.66 0 1 0 C4.35145386 20.10872314 4.35145386 20.10872314 0.7890625 26.00390625 C-1.09004946 27.41103469 -2.79422151 28.19646641 -5 29 C-5.78375 29.32484375 -6.5675 29.6496875 -7.375 29.984375 C-9.05403434 30.6664827 -10.74333242 31.32380737 -12.44140625 31.95703125 C-15.78551144 33.32020085 -18.81064126 35.08036984 -21.89453125 36.94921875 C-24.24861605 38.1240774 -26.41124525 38.58887141 -29 39 C-26.13763826 35.91022694 -23.31270096 33.82919392 -19.6484375 31.765625 C-18.63265625 31.19199219 -17.616875 30.61835937 -16.5703125 30.02734375 C-15.51585938 29.44082031 -14.46140625 28.85429688 -13.375 28.25 C-12.3128125 27.64800781 -11.250625 27.04601562 -10.15625 26.42578125 C-2.26812287 22 -2.26812287 22 0 22 C0 14.74 0 7.48 0 0 Z " fill="#A3EDF6" transform="translate(109,72)"/>
<path d="M0 0 C5.00445885 1.46471966 8.25822241 3.29041281 13 6 C13 19.86 13 33.72 13 48 C12.67 48 12.34 48 12 48 C10.66719416 34.6311776 9.67530804 21.43863932 10 8 C9.06929687 7.71382812 8.13859375 7.42765625 7.1796875 7.1328125 C3.78954405 5.92502184 1.68048174 4.36513095 -1 2 C-0.67 1.34 -0.34 0.68 0 0 Z " fill="#63C6F5" transform="translate(99,47)"/>
<path d="M0 0 C0.99 0.33 1.98 0.66 3 1 C3 2.65 3 4.3 3 6 C2.01 6 1.02 6 0 6 C-0.309375 6.61875 -0.61875 7.2375 -0.9375 7.875 C-1.625 9.25 -2.3125 10.625 -3 12 C-3.0482575 13.74933451 -3.03664118 15.50038364 -3 17.25 C-2.91044537 27.17937006 -3.49809699 37.08608074 -4 47 C-4.66 46.67 -5.32 46.34 -6 46 C-6.09920549 40.84055127 -6.17162646 35.68166311 -6.21972656 30.52148438 C-6.2397871 28.76780521 -6.26704251 27.01419247 -6.30175781 25.26074219 C-6.35052302 22.73355682 -6.37302392 20.20725909 -6.390625 17.6796875 C-6.41127014 16.90132538 -6.43191528 16.12296326 -6.45318604 15.3210144 C-6.45533826 10.04728498 -5.37290417 7.24709946 -2 3 C-1.34 2.01 -0.68 1.02 0 0 Z " fill="#024593" transform="translate(38,40)"/>
<path d="M0 0 C0.33 0 0.66 0 1 0 C1.04945571 5.76577504 1.0857461 11.53142646 1.10986328 17.29736328 C1.11991783 19.25864818 1.13356333 21.21991811 1.15087891 23.18115234 C1.17515113 26.00101418 1.18648859 28.82067772 1.1953125 31.640625 C1.20563507 32.51680481 1.21595764 33.39298462 1.22659302 34.29571533 C1.22674408 35.11626404 1.22689514 35.93681274 1.22705078 36.78222656 C1.231492 37.50170471 1.23593323 38.22118286 1.24050903 38.96246338 C0.95831285 41.35316388 0.23128603 42.94209578 -1 45 C-4.20445036 47.48621148 -7.9767846 49.35628554 -12 50 C-12 51.32 -12 52.64 -12 54 C-15.465 54.495 -15.465 54.495 -19 55 C-19 55.66 -19 56.32 -19 57 C-21.31 56.67 -23.62 56.34 -26 56 C-25.67 55.34 -25.34 54.68 -25 54 C-22.7058459 53.68573231 -20.44226779 53.62075424 -18.12890625 53.5390625 C-17.42636719 53.36117187 -16.72382812 53.18328125 -16 53 C-14.84321014 51.14511456 -14.84321014 51.14511456 -14 49 C-11.80583953 46.3952364 -9.36740683 44.96380233 -6.375 43.375 C-3.49917615 41.94660084 -3.49917615 41.94660084 -1 40 C-0.83970312 37.04470496 -0.74042672 34.11017543 -0.68359375 31.15234375 C-0.66281265 30.2659169 -0.64203156 29.37949005 -0.62062073 28.46620178 C-0.555026 25.623383 -0.49619448 22.78046883 -0.4375 19.9375 C-0.3943242 18.01496394 -0.35071022 16.09243766 -0.30664062 14.16992188 C-0.19933457 9.44671332 -0.09809549 4.72340847 0 0 Z " fill="#0789D5" transform="translate(112,55)"/>
<path d="M0 0 C6.22713415 3.73628049 6.22713415 3.73628049 8.98046875 5.56640625 C10.92245074 6.84939886 10.92245074 6.84939886 13.8125 7.6875 C13.8125 8.3475 13.8125 9.0075 13.8125 9.6875 C14.39 9.77 14.9675 9.8525 15.5625 9.9375 C18.4284304 10.89281013 19.8115764 12.47219173 21.8125 14.6875 C18.8125 15.6875 18.8125 15.6875 16.63598633 14.79125977 C15.81380615 14.32518311 14.99162598 13.85910645 14.14453125 13.37890625 C13.25185547 12.87939453 12.35917969 12.37988281 11.43945312 11.86523438 C10.51068359 11.33220703 9.58191406 10.79917969 8.625 10.25 C7.68462891 9.72083984 6.74425781 9.19167969 5.77539062 8.64648438 C3.4491673 7.33576971 1.12867655 6.01586283 -1.1875 4.6875 C-1.1875 4.0275 -1.1875 3.3675 -1.1875 2.6875 C-1.87457031 2.98785156 -2.56164062 3.28820313 -3.26953125 3.59765625 C-4.62111328 4.16806641 -4.62111328 4.16806641 -6 4.75 C-6.89332031 5.13285156 -7.78664063 5.51570313 -8.70703125 5.91015625 C-11.1875 6.6875 -11.1875 6.6875 -14.1875 5.6875 C-4.46347776 -0.43759586 -4.46347776 -0.43759586 0 0 Z " fill="#87EAF1" transform="translate(78.1875,33.3125)"/>
<path d="M0 0 C2 1 2 1 5 3 C5 3.66 5 4.32 5 5 C4.27683594 4.78601562 3.55367187 4.57203125 2.80859375 4.3515625 C-0.68089768 3.91476941 -1.92434845 4.62003654 -4.9375 6.375 C-5.89011719 6.92542969 -6.84273437 7.47585937 -7.82421875 8.04296875 C-11.91962445 10.56670584 -15.97123785 13.15664426 -19.96459961 15.83935547 C-23.85725279 18.41706871 -27.6863037 20.27561633 -32 22 C-32 21.01 -32 20.02 -32 19 C-31.01 18.67 -30.02 18.34 -29 18 C-27.79117904 15.99983534 -27.79117904 15.99983534 -27 14 C-27 14.99 -27 15.98 -27 17 C-26.34 16.34 -25.68 15.68 -25 15 C-24.34 14.34 -23.68 13.68 -23 13 C-22.01 13 -21.02 13 -20 13 C-19.67 11.35 -19.34 9.7 -19 8 C-15.7 7.34 -12.4 6.68 -9 6 C-9 5.34 -9 4.68 -9 4 C-6.03 3.34 -3.06 2.68 0 2 C0 1.34 0 0.68 0 0 Z " fill="#0FA7E0" transform="translate(75,30)"/>
<path d="M0 0 C1.09207257 3.27621771 1.01247823 6.02357836 0.96875 9.4453125 C0.9995022 11.95930511 1.21990455 14.37748221 1.5 16.875 C2.34752537 25.21894696 2.07811715 33.62410572 2 42 C2.66 42.33 3.32 42.66 4 43 C3.67 43.66 3.34 44.32 3 45 C1.68 44.67 0.36 44.34 -1 44 C-1.02464513 37.8944529 -1.04283371 31.78893449 -1.05493164 25.68334961 C-1.05997288 23.60456844 -1.06680574 21.52579084 -1.07543945 19.44702148 C-1.08751422 16.46597414 -1.09323024 13.48497351 -1.09765625 10.50390625 C-1.10539818 9.10078941 -1.10539818 9.10078941 -1.11329651 7.66932678 C-1.11337204 6.80850998 -1.11344757 5.94769318 -1.11352539 5.06079102 C-1.115746 4.29912125 -1.11796661 3.53745148 -1.12025452 2.75270081 C-1 1 -1 1 0 0 Z " fill="#61C7F7" transform="translate(41,52)"/>
<path d="M0 0 C0.99 0.495 0.99 0.495 2 1 C3.45869093 8.41271869 3.11220253 15.9758009 3.0625 23.5 C3.05798828 24.799375 3.05347656 26.09875 3.04882812 27.4375 C3.0371092 30.62504825 3.02070219 33.81249955 3 37 C2.01 37 1.02 37 0 37 C0 24.79 0 12.58 0 0 Z " fill="#0353A6" transform="translate(36,59)"/>
<path d="M0 0 C0.33 0 0.66 0 1 0 C1.33 2.64 1.66 5.28 2 8 C2.66 7.67 3.32 7.34 4 7 C4 16.24 4 25.48 4 35 C2.68 34.01 1.36 33.02 0 32 C-0.35711867 29.42202563 -0.46813593 27.27685887 -0.390625 24.70703125 C-0.38496521 24.00100266 -0.37930542 23.29497406 -0.37347412 22.56755066 C-0.35110411 20.31517374 -0.30091199 18.06439497 -0.25 15.8125 C-0.22993556 14.28452821 -0.21168468 12.75653144 -0.1953125 11.22851562 C-0.15123802 7.48506244 -0.08221074 3.74280205 0 0 Z " fill="#011B51" transform="translate(45,56)"/>
<path d="M0 0 C-0.66 0 -1.32 0 -2 0 C-2 0.66 -2 1.32 -2 2 C-5.37097383 3.49821059 -7.20442119 4 -11 4 C-11 4.99 -11 5.98 -11 7 C-11.99 7 -12.98 7 -14 7 C-14.33 7.66 -14.66 8.32 -15 9 C-21.875 8.125 -21.875 8.125 -23 7 C-23.04080783 5.00041636 -23.04254356 2.99954746 -23 1 C-21.68 0.67 -20.36 0.34 -19 0 C-19 0.66 -19 1.32 -19 2 C-18.071875 2.4640625 -18.071875 2.4640625 -17.125 2.9375 C-15.75 3.625 -14.375 4.3125 -13 5 C-13 4.34 -13 3.68 -13 3 C-12.34 3 -11.68 3 -11 3 C-11 2.01 -11 1.02 -11 0 C-3.57142857 -1.28571429 -3.57142857 -1.28571429 0 0 Z " fill="#034997" transform="translate(92,118)"/>
<path d="M0 0 C0.99 0.33 1.98 0.66 3 1 C3 10.9 3 20.8 3 31 C2.01 31 1.02 31 0 31 C0 20.77 0 10.54 0 0 Z " fill="#FDFCFB" transform="translate(90,60)"/>
<path d="M0 0 C-0.99 0.33 -1.98 0.66 -3 1 C-3 1.66 -3 2.32 -3 3 C-3.99 3 -4.98 3 -6 3 C-6 3.66 -6 4.32 -6 5 C-6.66 5 -7.32 5 -8 5 C-8 5.99 -8 6.98 -8 8 C-11.67410785 9.17571451 -15.16929183 9.07366746 -19 9 C-19 9.99 -19 10.98 -19 12 C-19.66 12 -20.32 12 -21 12 C-21 12.66 -21 13.32 -21 14 C-22.32 13.34 -23.64 12.68 -25 12 C-25 11.01 -25 10.02 -25 9 C-23.68 9.66 -22.36 10.32 -21 11 C-21 9.35 -21 7.7 -21 6 C-18.03 6.495 -18.03 6.495 -15 7 C-15.33 6.01 -15.66 5.02 -16 4 C-15.34 3.34 -14.68 2.68 -14 2 C-10.375 2.375 -10.375 2.375 -7 3 C-7 2.34 -7 1.68 -7 1 C-4.53721199 -0.231394 -2.7204945 -0.07159196 0 0 Z " fill="#0664B4" transform="translate(100,109)"/>
<path d="M0 0 C0.33 0.99 0.66 1.98 1 3 C-0.65 3 -2.3 3 -4 3 C-4 3.99 -4 4.98 -4 6 C-9.15800276 11.26518204 -15.08101387 13.85749141 -22.4375 14.125 C-23.283125 14.08375 -24.12875 14.0425 -25 14 C-25 13.34 -25 12.68 -25 12 C-22.29120665 10.64560332 -19.99066732 10.93498549 -17 11 C-16.67 10.01 -16.34 9.02 -16 8 C-14.68 8 -13.36 8 -12 8 C-12 7.34 -12 6.68 -12 6 C-11.01 6 -10.02 6 -9 6 C-8.67 4.68 -8.34 3.36 -8 2 C-6.865625 1.855625 -5.73125 1.71125 -4.5625 1.5625 C-1.19222799 1.38828522 -1.19222799 1.38828522 0 0 Z " fill="#024799" transform="translate(65,26)"/>
<path d="M0 0 C0.99 0 1.98 0 3 0 C3 0.66 3 1.32 3 2 C4.2375 2.7115625 4.2375 2.7115625 5.5 3.4375 C6.325 3.953125 7.15 4.46875 8 5 C8 5.99 8 6.98 8 8 C8.99 8.33 9.98 8.66 11 9 C11 9.66 11 10.32 11 11 C13.74366697 12.12974522 16.37888214 13.10200673 19.25 13.875 C20.1575 14.24625 21.065 14.6175 22 15 C22.875 17.125 22.875 17.125 23 19 C19.2089881 17.55049545 15.6125362 15.84827434 12 14 C12 13.34 12 12.68 12 12 C11.484375 11.9175 10.96875 11.835 10.4375 11.75 C6.88370031 10.65652317 4.13889419 9.01363024 1 7 C0.67 6.01 0.34 5.02 0 4 C-0.66 4 -1.32 4 -2 4 C-1.34 2.68 -0.68 1.36 0 0 Z " fill="#087BCA" transform="translate(80,29)"/>
<path d="M0 0 C1.65 0 3.3 0 5 0 C4.67 0.66 4.34 1.32 4 2 C3.01 1.67 2.02 1.34 1 1 C1.02320312 2.08539063 1.04640625 3.17078125 1.0703125 4.2890625 C1.0890827 5.73436807 1.10728156 7.17968115 1.125 8.625 C1.14175781 9.33785156 1.15851563 10.05070312 1.17578125 10.78515625 C1.21684602 15.2612164 0.69086567 18.77949278 -1 23 C-4.24292328 17.20906558 -5.26905686 11.59189297 -5 5 C-4.34 4.67 -3.68 4.34 -3 4 C-2.34 5.98 -1.68 7.96 -1 10 C-0.67 6.7 -0.34 3.4 0 0 Z " fill="#D6D8DE" transform="translate(63,57)"/>
<path d="M0 0 C3.3 0 6.6 0 10 0 C10 0.99 10 1.98 10 3 C8.02 3 6.04 3 4 3 C4 6.3 4 9.6 4 13 C2.68 13 1.36 13 0 13 C0 8.71 0 4.42 0 0 Z " fill="#F7F9F8" transform="translate(72,58)"/>
<path d="M0 0 C0.66 0.33 1.32 0.66 2 1 C2.66463298 7.38047659 0.95326123 11.00697691 -3 16 C-5.72545709 18.72545709 -6.96713184 19.9081895 -10.8125 20.25 C-11.534375 20.1675 -12.25625 20.085 -13 20 C-13 19.01 -13 18.02 -13 17 C-9.14499723 14.70182527 -6.38762753 13.09690688 -2 12 C-1.34 8.04 -0.68 4.08 0 0 Z " fill="#0465B7" transform="translate(113,88)"/>
<path d="M0 0 C1.98 0.495 1.98 0.495 4 1 C4 1.66 4 2.32 4 3 C5.65 3.33 7.3 3.66 9 4 C9 3.34 9 2.68 9 2 C13.3164922 1.23826608 16.74433453 0.83936396 21 2 C17.4837903 5.10253797 14.72139655 7.47540038 10 8 C6.12282196 6.32917189 2.56849336 4.24776984 -1 2 C-0.67 1.34 -0.34 0.68 0 0 Z " fill="#0E1E57" transform="translate(65,104)"/>
<path d="M0 0 C0.99 0 1.98 0 3 0 C2.67 1.32 2.34 2.64 2 4 C3.32 3.67 4.64 3.34 6 3 C5.505 3.598125 5.01 4.19625 4.5 4.8125 C2.71723582 6.97029994 2.71723582 6.97029994 3 10 C2.236875 9.690625 1.47375 9.38125 0.6875 9.0625 C-1.18789677 8.32106407 -3.08684652 7.63771783 -5 7 C-5.33 7.99 -5.66 8.98 -6 10 C-6.99 9.67 -7.98 9.34 -9 9 C-8.67 7.35 -8.34 5.7 -8 4 C-7.01 4 -6.02 4 -5 4 C-5 4.66 -5 5.32 -5 6 C-4.34 6 -3.68 6 -3 6 C-3.33 4.35 -3.66 2.7 -4 1 C-3.34 1 -2.68 1 -2 1 C-2 2.65 -2 4.3 -2 6 C-1.34 6 -0.68 6 0 6 C0 4.02 0 2.04 0 0 Z " fill="#083179" transform="translate(73,14)"/>
<path d="M0 0 C0.66 0 1.32 0 2 0 C2 0.66 2 1.32 2 2 C2.99 2 3.98 2 5 2 C5.33 4.64 5.66 7.28 6 10 C6.66 10 7.32 10 8 10 C8 10.99 8 11.98 8 13 C8.99 13 9.98 13 11 13 C10.67 14.98 10.34 16.96 10 19 C9.34 18.67 8.68 18.34 8 18 C8 17.01 8 16.02 8 15 C7.195625 14.855625 6.39125 14.71125 5.5625 14.5625 C3 14 3 14 2 13 C1.95936168 11.33382885 1.957279 9.66611905 2 8 C2.66 8 3.32 8 4 8 C4 6.35 4 4.7 4 3 C3.01 3 2.02 3 1 3 C0.67 2.01 0.34 1.02 0 0 Z " fill="#034796" transform="translate(104,35)"/>
<path d="M0 0 C5.75 0.875 5.75 0.875 8 2 C8 3.32 8 4.64 8 6 C8.99 5.34 9.98 4.68 11 4 C13.6875 3.875 13.6875 3.875 16 4 C14.67649489 6.64701022 13.79571502 7.04357118 11 8 C6.54484203 7.76133082 3.11792255 7.36735636 0 4 C0 2.68 0 1.36 0 0 Z " fill="#02489C" transform="translate(88,30)"/>
<path d="M0 0 C0.66 0.33 1.32 0.66 2 1 C0.8553125 1.8971875 0.8553125 1.8971875 -0.3125 2.8125 C-2.91335259 4.84004112 -2.91335259 4.84004112 -4.6875 6.75 C-6 8 -6 8 -8 8 C-8 14.6 -8 21.2 -8 28 C-8.33 28 -8.66 28 -9 28 C-10.83214794 10.49644381 -10.83214794 10.49644381 -9 5 C-7.00390625 3.578125 -7.00390625 3.578125 -4.5625 2.25 C-3.75941406 1.80140625 -2.95632812 1.3528125 -2.12890625 0.890625 C-1.07509766 0.44976562 -1.07509766 0.44976562 0 0 Z " fill="#9AECF3" transform="translate(51,47)"/>
<path d="M0 0 C-2 2 -2 2 -5.125 2.125 C-6.07375 2.08375 -7.0225 2.0425 -8 2 C-8 3.65 -8 5.3 -8 7 C-9.65 7.33 -11.3 7.66 -13 8 C-13.33 8.99 -13.66 9.98 -14 11 C-14.66 11 -15.32 11 -16 11 C-16.33 8.69 -16.66 6.38 -17 4 C-14.69 4.33 -12.38 4.66 -10 5 C-9.8453125 4.0409375 -9.8453125 4.0409375 -9.6875 3.0625 C-9.460625 2.381875 -9.23375 1.70125 -9 1 C-5.8035914 -0.06546953 -3.34252724 -0.07427838 0 0 Z " fill="#0582D2" transform="translate(64,36)"/>
<path d="M0 0 C0 3 0 3 -2.5625 5.625 C-5.8579661 8.25352654 -8.82187804 8.5903802 -13 9 C-13.33 9.66 -13.66 10.32 -14 11 C-13.34 11.33 -12.68 11.66 -12 12 C-14.64 12 -17.28 12 -20 12 C-16.00627606 8.55686712 -11.83887946 6.15358364 -7.1875 3.75 C-6.14819336 3.20472656 -6.14819336 3.20472656 -5.08789062 2.6484375 C-3.3944311 1.76083113 -1.69755876 0.87974115 0 0 Z " fill="#2ACFF0" transform="translate(100,101)"/>
<path d="M0 0 C2 1 2 1 5 3 C5 3.66 5 4.32 5 5 C4.26136719 4.78472656 3.52273437 4.56945313 2.76171875 4.34765625 C-0.59804393 3.92471583 -1.45646289 4.546782 -4.1875 6.4375 C-9.16597482 9.47152001 -13.2995201 9.53553569 -19 9 C-19 8.67 -19 8.34 -19 8 C-15.7 7.34 -12.4 6.68 -9 6 C-9 5.34 -9 4.68 -9 4 C-6.03 3.34 -3.06 2.68 0 2 C0 1.34 0 0.68 0 0 Z " fill="#0A9FE1" transform="translate(75,30)"/>
<path d="M0 0 C2.31 0 4.62 0 7 0 C7 0.66 7 1.32 7 2 C7.66 2 8.32 2 9 2 C9 2.66 9 3.32 9 4 C8.34 4 7.68 4 7 4 C7 4.66 7 5.32 7 6 C6.34 6 5.68 6 5 6 C5 6.66 5 7.32 5 8 C3.68 8 2.36 8 1 8 C0.67 5.36 0.34 2.72 0 0 Z " fill="#0652A2" transform="translate(55,109)"/>
<path d="M0 0 C3.82118713 3.82118713 4.125 8.18054082 4.125 13.375 C4.09316134 14.91690094 4.05482724 16.45874525 4 18 C3.01 18 2.02 18 1 18 C-0.0712828 11.97403427 -0.09945415 6.11090483 0 0 Z " fill="#0D164A" transform="translate(59,74)"/>
<path d="M0 0 C0.99 0 1.98 0 3 0 C3 1.98 3 3.96 3 6 C2.34 6 1.68 6 1 6 C1 6.99 1 7.98 1 9 C-1.31 8.67 -3.62 8.34 -6 8 C-6 7.34 -6 6.68 -6 6 C-6.99 5.67 -7.98 5.34 -9 5 C-8.43410156 4.89042969 -7.86820312 4.78085937 -7.28515625 4.66796875 C-6.18494141 4.43013672 -6.18494141 4.43013672 -5.0625 4.1875 C-4.33160156 4.03667969 -3.60070312 3.88585937 -2.84765625 3.73046875 C-2.23792969 3.48941406 -1.62820312 3.24835937 -1 3 C-0.67 2.01 -0.34 1.02 0 0 Z " fill="#044A98" transform="translate(76,20)"/>
<path d="M0 0 C1.32 0 2.64 0 4 0 C4.33 1.32 4.66 2.64 5 4 C9.455 3.505 9.455 3.505 14 3 C14 3.66 14 4.32 14 5 C10.93753253 6.78409802 8.77920727 7.22880021 5.25 7.125 C4.45078125 7.10695313 3.6515625 7.08890625 2.828125 7.0703125 C2.22484375 7.04710938 1.6215625 7.02390625 1 7 C0.67 4.69 0.34 2.38 0 0 Z " fill="#0C205C" transform="translate(88,93)"/>
<path d="M0 0 C2.25 0.25 2.25 0.25 4 1 C3.236875 1.598125 2.47375 2.19625 1.6875 2.8125 C-0.91860045 4.8160239 -0.91860045 4.8160239 -2.5625 6.75 C-4 8 -4 8 -8 8 C-8 8.66 -8 9.32 -8 10 C-9.98 10.33 -11.96 10.66 -14 11 C-13.5 9.1875 -13.5 9.1875 -12 7 C-10.02300422 6.1160129 -8.01997281 5.46587564 -5.9609375 4.796875 C-3.75814001 4.0497952 -3.75814001 4.0497952 -1.75 1.75 C-0.88375 0.88375 -0.88375 0.88375 0 0 Z " fill="#014493" transform="translate(112,104)"/>
<path d="M0 0 C0.33 0.66 0.66 1.32 1 2 C-0.65 2.33 -2.3 2.66 -4 3 C-4 3.66 -4 4.32 -4 5 C-4.99 5 -5.98 5 -7 5 C-7 5.66 -7 6.32 -7 7 C-9.63892176 8.78305524 -11.97178863 9.99059621 -15 11 C-15 10.01 -15 9.02 -15 8 C-14.34 8 -13.68 8 -13 8 C-13 7.34 -13 6.68 -13 6 C-12.01 6 -11.02 6 -10 6 C-10 5.34 -10 4.68 -10 4 C-9.01 4 -8.02 4 -7 4 C-7 3.34 -7 2.68 -7 2 C-4.69 1.34 -2.38 0.68 0 0 Z " fill="#0155A6" transform="translate(107,106)"/>
<path d="M0 0 C2.64 0 5.28 0 8 0 C8.33 0.99 8.66 1.98 9 3 C9.99 3 10.98 3 12 3 C12 3.66 12 4.32 12 5 C10.35 5.33 8.7 5.66 7 6 C6.67 5.01 6.34 4.02 6 3 C4.35 3.33 2.7 3.66 1 4 C0.67 2.68 0.34 1.36 0 0 Z " fill="#082E7A" transform="translate(71,128)"/>
<path d="M0 0 C0.625 2.3125 0.625 2.3125 1 5 C0.01 6.485 0.01 6.485 -1 8 C-3.31 7.01 -5.62 6.02 -8 5 C-7.01 4.67 -6.02 4.34 -5 4 C-5 3.34 -5 2.68 -5 2 C-6.65 2 -8.3 2 -10 2 C-10 1.67 -10 1.34 -10 1 C-3.375 0 -3.375 0 0 0 Z " fill="#032A75" transform="translate(96,20)"/>
<path d="M0 0 C-0.66 0 -1.32 0 -2 0 C-2 0.66 -2 1.32 -2 2 C-3.72440365 2.98753064 -5.45475026 3.96468806 -7.1875 4.9375 C-8.15042969 5.48277344 -9.11335938 6.02804688 -10.10546875 6.58984375 C-12.80662842 7.90579333 -15.04356101 8.57301887 -18 9 C-15.09073891 5.84314222 -12.19738341 3.74904152 -8.4375 1.6875 C-7.48746094 1.15511719 -6.53742188 0.62273437 -5.55859375 0.07421875 C-3 -1 -3 -1 0 0 Z " fill="#E2EEF1" transform="translate(98,102)"/>
<path d="M0 0 C0.66 0 1.32 0 2 0 C3.38226016 2.76452033 3.09525387 5.0461363 3.0625 8.125 C3.05347656 9.22070312 3.04445313 10.31640625 3.03515625 11.4453125 C3.02355469 12.28835937 3.01195313 13.13140625 3 14 C2.01 14 1.02 14 0 14 C0 9.38 0 4.76 0 0 Z " fill="#FCFDFA" transform="translate(72,77)"/>
<path d="M0 0 C2.97 0.495 2.97 0.495 6 1 C6 1.66 6 2.32 6 3 C7.32 3.33 8.64 3.66 10 4 C10.33 5.65 10.66 7.3 11 9 C9.02 9.99 9.02 9.99 7 11 C7 9.02 7 7.04 7 5 C6.01 5 5.02 5 4 5 C4 4.34 4 3.68 4 3 C2.35 2.67 0.7 2.34 -1 2 C-0.67 1.34 -0.34 0.68 0 0 Z " fill="#02307A" transform="translate(102,32)"/>
<path d="M0 0 C0.66 0 1.32 0 2 0 C4 3 4 3 4 7 C2.68 7 1.36 7 0 7 C-0.33 7.66 -0.66 8.32 -1 9 C-1 7.35 -1 5.7 -1 4 C-2.65 4.33 -4.3 4.66 -6 5 C-6 4.01 -6 3.02 -6 2 C-4.35 2 -2.7 2 -1 2 C-0.67 1.34 -0.34 0.68 0 0 Z " fill="#012A75" transform="translate(57,118)"/>
<path d="M0 0 C2 1 2 1 2 1 Z M-4 1 C-2.68 1.33 -1.36 1.66 0 2 C-6.07439825 8.70459519 -6.07439825 8.70459519 -9.9375 9.9375 C-10.9584375 9.9684375 -10.9584375 9.9684375 -12 10 C-10.6645075 5.99352249 -8.47234113 5.24255364 -5 3 C-4.67 2.34 -4.34 1.68 -4 1 Z " fill="#023582" transform="translate(108,111)"/>
<path d="M0 0 C4.12751449 0.60698743 7.3321148 2.03810791 11 4 C11 4.66 11 5.32 11 6 C7.37 6 3.74 6 0 6 C0 5.34 0 4.68 0 4 C0.66 4 1.32 4 2 4 C2 3.34 2 2.68 2 2 C1.34 2 0.68 2 0 2 C0 1.34 0 0.68 0 0 Z " fill="#0A8AD0" transform="translate(62,109)"/>
<path d="M0 0 C5.91218792 2.3997316 10.97577139 5.0447562 16 9 C16 9.33 16 9.66 16 10 C13.9375 10.375 13.9375 10.375 11 10 C9.10124982 8.62679674 7.43905597 7.1264877 5.74609375 5.5078125 C3.93103907 3.94044985 2.17839711 2.98194706 0 2 C0 1.34 0 0.68 0 0 Z " fill="#087DCC" transform="translate(46,99)"/>
<path d="M0 0 C2.31 0 4.62 0 7 0 C6.67 1.65 6.34 3.3 6 5 C4.02 5 2.04 5 0 5 C0 3.35 0 1.7 0 0 Z " fill="#034F9E" transform="translate(62,115)"/>
<path d="M0 0 C3.9745504 0.69849772 7.26574098 2.62892769 10.75 4.5625 C11.65298828 5.0565332 11.65298828 5.0565332 12.57421875 5.56054688 C14.05170503 6.3696465 15.52616036 7.18427662 17 8 C16.34 8.66 15.68 9.32 15 10 C14.33613281 9.57847656 13.67226563 9.15695313 12.98828125 8.72265625 C12.10527344 8.17480469 11.22226562 7.62695312 10.3125 7.0625 C9.44238281 6.51722656 8.57226562 5.97195312 7.67578125 5.41015625 C5.05375311 4.02832828 2.91689925 3.41519827 0 3 C0 2.01 0 1.02 0 0 Z " fill="#A4DAEE" transform="translate(44,95)"/>
<path d="M0 0 C0.99 0 1.98 0 3 0 C3 0.99 3 1.98 3 3 C3.66 3 4.32 3 5 3 C4.67 4.65 4.34 6.3 4 8 C2.35 8 0.7 8 -1 8 C-0.34 7.67 0.32 7.34 1 7 C0.67 4.69 0.34 2.38 0 0 Z " fill="#076CC3" transform="translate(42,41)"/>
<path d="M0 0 C2.475 0.99 2.475 0.99 5 2 C5 2.99 5 3.98 5 5 C1.32589215 6.17571451 -2.16929183 6.07366746 -6 6 C-6 5.34 -6 4.68 -6 4 C-4.02 4 -2.04 4 0 4 C0 2.68 0 1.36 0 0 Z " fill="#031348" transform="translate(83,72)"/>
<path d="M0 0 C2.475 0.99 2.475 0.99 5 2 C4.01 2.495 4.01 2.495 3 3 C3 3.66 3 4.32 3 5 C-0.37097383 6.49821059 -2.20442119 7 -6 7 C-6 7.66 -6 8.32 -6 9 C-6.66 9 -7.32 9 -8 9 C-7.67 8.01 -7.34 7.02 -7 6 C-3.535 5.505 -3.535 5.505 0 5 C0 3.35 0 1.7 0 0 Z " fill="#0A72BD" transform="translate(72,27)"/>
<path d="M0 0 C0 4.29 0 8.58 0 13 C-2.45823172 9.31265242 -3.01242616 6.30300029 -4 2 C-1 0 -1 0 0 0 Z " fill="#1A2054" transform="translate(63,57)"/>
<path d="M0 0 C0.99 1.32 1.98 2.64 3 4 C-0.61973402 5.31626692 -3.09567131 6 -7 6 C-7 5.34 -7 4.68 -7 4 C-4.69 2.68 -2.38 1.36 0 0 Z " fill="#142259" transform="translate(67,41)"/>
<path d="M0 0 C0.66 0.66 1.32 1.32 2 2 C1.67 2.66 1.34 3.32 1 4 C2.65 3.67 4.3 3.34 6 3 C6 3.66 6 4.32 6 5 C5.01 5 4.02 5 3 5 C2.67 5.66 2.34 6.32 2 7 C0.02 6.34 -1.96 5.68 -4 5 C-2.25 1.125 -2.25 1.125 0 0 Z " fill="#0D205E" transform="translate(50,51)"/>
<path d="M0 0 C2.64 0 5.28 0 8 0 C4.98112756 3.48331435 2.43090471 4.79157144 -2 6 C-1.34 4.02 -0.68 2.04 0 0 Z " fill="#0AC8F1" transform="translate(56,39)"/>
<path d="M0 0 C0 0.66 0 1.32 0 2 C-1.65 2 -3.3 2 -5 2 C-5.66 3.32 -6.32 4.64 -7 6 C-7 4.68 -7 3.36 -7 2 C-8.32 1.67 -9.64 1.34 -11 1 C-6.87831311 -0.62950412 -4.29299643 -1.26264601 0 0 Z " fill="#0A92D3" transform="translate(85,114)"/>
<path d="M0 0 C0.66 0 1.32 0 2 0 C2.33 0.99 2.66 1.98 3 3 C6.50294871 4.71567661 6.50294871 4.71567661 10 6 C10 6.99 10 7.98 10 9 C8.32700041 8.34938905 6.66140763 7.67966676 5 7 C4.2575 6.731875 3.515 6.46375 2.75 6.1875 C1 5 1 5 0.25 2.375 C0.1675 1.59125 0.085 0.8075 0 0 Z " fill="#0564BA" transform="translate(102,44)"/>
<path d="M0 0 C0.33 0 0.66 0 1 0 C1 3.3 1 6.6 1 10 C0.01 10 -0.98 10 -2 10 C-2 7.69 -2 5.38 -2 3 C-1.34 3 -0.68 3 0 3 C0 2.01 0 1.02 0 0 Z " fill="#132558" transform="translate(62,82)"/>
<path d="M0 0 C4.05281712 1.22527029 7.44360764 2.69880494 11 5 C7.18702864 6.27099045 5.6732166 5.45398157 2 4 C1.01 3.34 0.02 2.68 -1 2 C-0.67 1.34 -0.34 0.68 0 0 Z " fill="#4FB9EE" transform="translate(99,47)"/>
<path d="M0 0 C1.2065625 0.0309375 1.2065625 0.0309375 2.4375 0.0625 C2.4375 1.3825 2.4375 2.7025 2.4375 4.0625 C0.7875 4.3925 -0.8625 4.7225 -2.5625 5.0625 C-3.125 3.125 -3.125 3.125 -3.5625 1.0625 C-2.5625 0.0625 -2.5625 0.0625 0 0 Z " fill="#053488" transform="translate(88.5625,21.9375)"/>
<path d="M0 0 C1.625 1.625 1.625 1.625 3 4 C2.1875 7.25 2.1875 7.25 1 10 C-0.85064319 6.87703962 -1.29356154 4.62059232 -1 1 C-0.67 0.67 -0.34 0.34 0 0 Z " fill="#EDEEF1" transform="translate(61,70)"/>
<path d="M0 0 C0.99 0 1.98 0 3 0 C3 1.98 3 3.96 3 6 C2.34 6 1.68 6 1 6 C0.67 6.66 0.34 7.32 0 8 C-0.38063221 5.6739143 -0.71269945 3.33944736 -1 1 C-0.67 0.67 -0.34 0.34 0 0 Z " fill="#1152A0" transform="translate(76,20)"/>
<path d="M0 0 C2.31 0 4.62 0 7 0 C7 0.99 7 1.98 7 3 C4.69 3 2.38 3 0 3 C0 2.01 0 1.02 0 0 Z " fill="#FDFDF7" transform="translate(75,58)"/>
<path d="M0 0 C5.875 1.875 5.875 1.875 7 3 C7.07179964 4.51928038 7.08392007 6.04167482 7.0625 7.5625 C7.05347656 8.38878906 7.04445313 9.21507812 7.03515625 10.06640625 C7.02355469 10.70449219 7.01195313 11.34257813 7 12 C6.67 12 6.34 12 6 12 C5.67 9.36 5.34 6.72 5 4 C3.02 3.34 1.04 2.68 -1 2 C-0.67 1.34 -0.34 0.68 0 0 Z " fill="#041548" transform="translate(101,52)"/>
<path d="M0 0 C1.32 0 2.64 0 4 0 C4 0.66 4 1.32 4 2 C4.66 2 5.32 2 6 2 C6 2.66 6 3.32 6 4 C5.34 4 4.68 4 4 4 C3.67 4.66 3.34 5.32 3 6 C0 1.125 0 1.125 0 0 Z " fill="#065AAE" transform="translate(58,109)"/>
<path d="M0 0 C1.32 0.33 2.64 0.66 4 1 C4 2.65 4 4.3 4 6 C3.01 6.33 2.02 6.66 1 7 C0.67 4.69 0.34 2.38 0 0 Z " fill="#0674C5" transform="translate(47,40)"/>
<path d="M0 0 C-0.99 0.33 -1.98 0.66 -3 1 C-3 1.66 -3 2.32 -3 3 C-5.31 2.67 -7.62 2.34 -10 2 C-9.67 1.34 -9.34 0.68 -9 0 C-2.57142857 -1.28571429 -2.57142857 -1.28571429 0 0 Z " fill="#0892D9" transform="translate(96,109)"/>
<path d="M0 0 C1.98 0.495 1.98 0.495 4 1 C4 1.66 4 2.32 4 3 C6.475 3.99 6.475 3.99 9 5 C8.67 5.66 8.34 6.32 8 7 C5.03 5.35 2.06 3.7 -1 2 C-0.67 1.34 -0.34 0.68 0 0 Z " fill="#18224F" transform="translate(65,104)"/>
<path d="M0 0 C4.875 2.625 4.875 2.625 6 6 C1.25 5.25 1.25 5.25 -1 3 C-0.67 2.01 -0.34 1.02 0 0 Z " fill="#76D0EE" transform="translate(94,43)"/>
<path d="M0 0 C1.32 0 2.64 0 4 0 C4.33 1.65 4.66 3.3 5 5 C2.36 4.34 -0.28 3.68 -3 3 C-2.01 2.67 -1.02 2.34 0 2 C0 1.34 0 0.68 0 0 Z " fill="#035DB5" transform="translate(83,29)"/>
<path d="M0 0 C1.98 0 3.96 0 6 0 C6 0.99 6 1.98 6 3 C4.02 3 2.04 3 0 3 C0 2.01 0 1.02 0 0 Z " fill="#093490" transform="translate(57,125)"/>
<path d="M0 0 C0.66 0.66 1.32 1.32 2 2 C1.01 2.33 0.02 2.66 -1 3 C-1.99 4.485 -1.99 4.485 -3 6 C-3.99 6 -4.98 6 -6 6 C-6 5.01 -6 4.02 -6 3 C-4.02 2.01 -2.04 1.02 0 0 Z " fill="#026EC0" transform="translate(106,102)"/>
<path d="M0 0 C2.09350689 3.4019487 2.17942163 6.05272412 2 10 C1.34 10 0.68 10 0 10 C0 8.35 0 6.7 0 5 C-0.66 4.67 -1.32 4.34 -2 4 C-1.34 4 -0.68 4 0 4 C0 2.68 0 1.36 0 0 Z " fill="#04266A" transform="translate(71,10)"/>
<path d="M0 0 C0.78375 0.04125 1.5675 0.0825 2.375 0.125 C2.045 1.115 1.715 2.105 1.375 3.125 C-0.275 3.455 -1.925 3.785 -3.625 4.125 C-3.955 3.465 -4.285 2.805 -4.625 2.125 C-2.625 0.125 -2.625 0.125 0 0 Z " fill="#0478C6" transform="translate(88.625,110.875)"/>
<path d="M0 0 C-1.27514492 2.55028983 -2.40341297 2.93081711 -5 4 C-5.99 4 -6.98 4 -8 4 C-8 3.34 -8 2.68 -8 2 C-4.77208445 -0.1519437 -3.71599191 -0.20086443 0 0 Z " fill="#023F93" transform="translate(104,34)"/>
<path d="M0 0 C1.98 0 3.96 0 6 0 C5.67 0.99 5.34 1.98 5 3 C3.35 3 1.7 3 0 3 C0 2.01 0 1.02 0 0 Z " fill="#082875" transform="translate(90,9)"/>
</svg>
