<?xml version="1.0" encoding="UTF-8"?>
<svg version="1.1" xmlns="http://www.w3.org/2000/svg" width="204" height="192">
<path d="M0 0 C67.32 0 134.64 0 204 0 C204 63.36 204 126.72 204 192 C136.68 192 69.36 192 0 192 C0 128.64 0 65.28 0 0 Z " fill="#FEFEFE" transform="translate(0,0)"/>
<path d="M0 0 C1.08139755 -0.01268417 2.1627951 -0.02536835 3.27696228 -0.03843689 C4.43539139 -0.03550125 5.5938205 -0.03256561 6.78735352 -0.02954102 C7.98683121 -0.03478287 9.1863089 -0.04002472 10.4221344 -0.04542542 C12.95638251 -0.05184306 15.49066043 -0.050512 18.02490234 -0.04199219 C21.898734 -0.03348575 25.77108949 -0.06224463 29.64477539 -0.09399414 C32.10896766 -0.09560635 34.57316253 -0.09502824 37.03735352 -0.09204102 C38.77196083 -0.10889198 38.77196083 -0.10889198 40.54161072 -0.12608337 C48.05277103 -0.06111464 51.65687605 0.7728093 57.12329102 5.96655273 C61.61405848 11.49365116 61.65177217 15.88580718 61.71704102 22.82592773 C61.72511276 23.64474426 61.73318451 24.46356079 61.74150085 25.30718994 C61.75531031 27.03867495 61.76604645 28.77018683 61.77392578 30.50170898 C61.7854355 32.26285849 61.80587146 34.02397338 61.83544922 35.78491211 C61.87834573 38.34048979 61.89432507 40.89503369 61.90454102 43.45092773 C61.9220491 44.22829285 61.93955719 45.00565796 61.95759583 45.80657959 C61.93323656 52.02863286 60.32643115 57.32269501 56.03120422 61.97039795 C51.95446018 65.57107241 48.66901244 66.54185768 43.36938477 66.50170898 C42.6152832 66.49848633 41.86118164 66.49526367 41.08422852 66.49194336 C40.30692383 66.48356445 39.52961914 66.47518555 38.72875977 66.46655273 C37.93598633 66.46204102 37.14321289 66.4575293 36.32641602 66.45288086 C34.37716468 66.44113838 32.42795238 66.42320419 30.47875977 66.40405273 C30.48986282 67.20505402 30.50096588 68.0060553 30.5124054 68.83132935 C30.61274259 76.39350427 30.68879249 83.95535481 30.73782063 91.51802254 C30.76387447 95.40577805 30.79919342 99.29298189 30.85595703 103.18041992 C30.91043029 106.93465441 30.94021199 110.68835953 30.95314598 114.44295883 C30.96235869 115.8727031 30.98034965 117.30241956 31.00741005 118.73193741 C31.23647293 131.33816781 31.23647293 131.33816781 28.19824219 135.2043457 C23.82143546 138.74461221 21.08280597 139.65446034 15.4284668 139.69458008 C14.20684845 139.70733978 12.9852301 139.72009949 11.72659302 139.73324585 C10.40988617 139.7354715 9.09317932 139.73769714 7.73657227 139.73999023 C6.36660626 139.74642094 4.99664162 139.75314951 3.62667847 139.76016235 C0.7568646 139.77212605 -2.11282898 139.77584415 -4.98266602 139.7746582 C-8.65020116 139.77445511 -12.31696061 139.80175043 -15.98431206 139.83620262 C-18.81372583 139.85850113 -21.64295382 139.86249486 -24.47244644 139.86143875 C-26.47874949 139.86492989 -28.48499456 139.88657502 -30.49118042 139.90853882 C-42.01781946 139.85077753 -42.01781946 139.85077753 -46.52124023 135.40405273 C-48.32963033 132.42954313 -48.77545478 130.20992792 -48.7953949 126.74942017 C-48.80537003 125.81862137 -48.81534515 124.88782257 -48.82562256 123.92881775 C-48.82628723 122.91469315 -48.8269519 121.90056854 -48.82763672 120.85571289 C-48.83596024 119.78212021 -48.84428375 118.70852753 -48.8528595 117.60240173 C-48.87697797 114.04926947 -48.88573369 110.4963207 -48.89233398 106.94311523 C-48.90129842 104.47455794 -48.91042023 102.00600122 -48.91969299 99.53744507 C-48.93619024 94.36080606 -48.94388455 89.18423178 -48.94677734 84.00756836 C-48.95216386 77.37391921 -48.98985291 70.74087821 -49.03552151 64.10740089 C-49.06526023 59.00816626 -49.07250021 53.90907869 -49.07350349 48.80976486 C-49.07771157 46.36412138 -49.09016918 43.91847768 -49.11102104 41.47291946 C-49.13786958 38.05188473 -49.13312837 34.63226785 -49.12060547 31.21118164 C-49.13543976 30.2011055 -49.15027405 29.19102936 -49.16555786 28.15034485 C-49.11822973 23.61106718 -49.02682517 20.41004979 -46.10877991 16.79110718 C-42.36505929 13.33745387 -40.63825932 13.28212546 -35.63842773 13.30639648 C-34.47182617 13.30961914 -33.30522461 13.3128418 -32.10327148 13.31616211 C-30.87995117 13.32454102 -29.65663086 13.33291992 -28.39624023 13.34155273 C-27.16518555 13.34606445 -25.93413086 13.35057617 -24.66577148 13.35522461 C-21.61754632 13.36703944 -18.5694171 13.38351246 -15.52124023 13.40405273 C-15.39233398 12.63319336 -15.26342773 11.86233398 -15.13061523 11.06811523 C-14.1484414 6.7742527 -11.77135068 4.28800723 -8.22569275 1.78086853 C-5.21346565 0.24736708 -3.35833071 0.01914295 0 0 Z " fill="#E3E4F5" transform="translate(107.521240234375,23.595947265625)"/>
<path d="M0 0 C1.0450621 -0.00287018 2.09012421 -0.00574036 3.16685486 -0.00869751 C5.36978703 -0.01073367 7.57273746 -0.00523524 9.77563477 0.00732422 C13.14445419 0.02339985 16.51207683 0.00745138 19.88085938 -0.01171875 C22.02474223 -0.00973656 24.16862433 -0.00589338 26.3125 0 C27.31781265 -0.00607269 28.32312531 -0.01214539 29.35890198 -0.0184021 C36.03363119 0.04865692 39.41899457 0.88937987 44.36694336 5.53759766 C46.73725081 9.4734433 46.6840616 12.65623142 46.65625 17.171875 C46.66244858 18.0138443 46.66864716 18.8558136 46.67503357 19.72329712 C46.68211984 21.50009 46.67897852 23.27694945 46.66625977 25.05371094 C46.65242059 27.75841951 46.6864462 30.4596473 46.72460938 33.1640625 C46.72556095 34.89583417 46.72369967 36.62761014 46.71875 38.359375 C46.73200821 39.16063812 46.74526642 39.96190125 46.75892639 40.78744507 C46.66003557 46.81680565 45.03079673 49.82974515 41.08984375 54.3984375 C38.72321193 55.58175341 37.32887095 55.51096117 34.69116211 55.49267578 C33.77938705 55.49002716 32.867612 55.48737854 31.9282074 55.48464966 C30.93869583 55.47940277 29.94918427 55.47415588 28.9296875 55.46875 C26.83527817 55.47733979 24.74087589 55.48781778 22.64648438 55.5 C19.34362216 55.51664774 16.04232618 55.5235532 12.73950195 55.49804688 C9.55192404 55.4769704 6.36713441 55.50042469 3.1796875 55.53125 C2.20434555 55.51385773 1.2290036 55.49646545 0.22410583 55.47854614 C-6.54531919 55.59644667 -10.04517929 57.32210836 -15.03831482 61.89767456 C-16.91015625 63.3984375 -16.91015625 63.3984375 -19.91015625 63.3984375 C-21.1450459 60.92865821 -21.05698168 59.2558213 -21.0871582 56.49316406 C-21.09999344 55.47160217 -21.11282867 54.45004028 -21.12605286 53.39752197 C-21.13343979 52.28923035 -21.14082672 51.18093872 -21.1484375 50.0390625 C-21.15650925 48.9019281 -21.16458099 47.7647937 -21.17289734 46.59320068 C-21.18674723 44.18226653 -21.19746532 41.77131269 -21.20532227 39.36035156 C-21.22252121 35.6773547 -21.26639915 31.99525847 -21.31054688 28.3125 C-21.32067478 25.97136078 -21.32919058 23.63021391 -21.3359375 21.2890625 C-21.35344559 20.1888678 -21.37095367 19.0886731 -21.38899231 17.95513916 C-21.37212799 11.99370294 -21.24744229 7.91293047 -16.91015625 3.3984375 C-11.65330254 -0.38865609 -6.22695174 -0.03769042 0 0 Z " fill="#FDFCFB" transform="translate(116.91015625,28.6015625)"/>
<path d="M0 0 C1.5631897 0.00785522 1.5631897 0.00785522 3.15795898 0.01586914 C4.28266602 0.0190918 5.40737305 0.02231445 6.56616211 0.02563477 C7.75016602 0.03401367 8.93416992 0.04239258 10.15405273 0.05102539 C11.34192383 0.05553711 12.52979492 0.06004883 13.75366211 0.06469727 C16.69967499 0.07652864 19.64558954 0.09301252 22.59155273 0.11352539 C22.61660889 1.4004126 22.64166504 2.6872998 22.66748047 4.01318359 C22.76156845 8.78232994 22.86178586 13.5513311 22.96386719 18.3203125 C23.00721076 20.38538215 23.04888626 22.45048751 23.08886719 24.515625 C23.14658356 27.48196174 23.21027424 30.44811884 23.27514648 33.41430664 C23.29185898 34.33939529 23.30857147 35.26448395 23.32579041 36.21760559 C23.34573563 37.07827133 23.36568085 37.93893707 23.38623047 38.82568359 C23.40954689 39.96152641 23.40954689 39.96152641 23.43333435 41.12031555 C23.52787597 43.32277354 23.52787597 43.32277354 24.59155273 46.11352539 C26.57155273 46.44352539 28.55155273 46.77352539 30.59155273 47.11352539 C27.83847327 53.49677158 25.827367 57.58893472 19.59155273 61.11352539 C17.13312604 63.57195209 16.61981033 64.64517076 16.40795898 68.15649414 C15.70976022 73.47896483 12.41024594 77.36301598 9.34155273 81.61352539 C8.48110352 82.83749023 8.48110352 82.83749023 7.60327148 84.08618164 C6.47675986 85.68485303 5.34348314 87.27878281 4.20288086 88.86743164 C3.15582996 90.32695714 2.11752974 91.79281452 1.08959961 93.26586914 C-0.05223133 94.89893382 -1.22669988 96.50910923 -2.40844727 98.11352539 C-2.73844727 98.11352539 -3.06844727 98.11352539 -3.40844727 98.11352539 C-3.43156858 85.48357054 -3.44936127 72.85362069 -3.46025944 60.22364902 C-3.46548873 54.35970375 -3.47258721 48.49577291 -3.48388672 42.63183594 C-3.49471396 36.97790827 -3.50072375 31.32399453 -3.50332451 25.6700573 C-3.50517905 23.50778929 -3.50880022 21.34552208 -3.51417732 19.18325996 C-3.52138559 16.16593882 -3.5224383 13.14867596 -3.52197266 10.13134766 C-3.52556793 9.2279213 -3.52916321 8.32449493 -3.53286743 7.39369202 C-3.52071436 0.16595359 -3.52071436 0.16595359 0 0 Z " fill="#FEFEFE" transform="translate(68.408447265625,49.886474609375)"/>
<path d="M0 0 C1.12148437 0.00322266 2.24296875 0.00644531 3.3984375 0.00976562 C4.5740625 0.01814453 5.7496875 0.02652344 6.9609375 0.03515625 C8.14429687 0.03966797 9.32765625 0.04417969 10.546875 0.04882812 C13.47658389 0.06064147 16.40626691 0.07857735 19.3359375 0.09765625 C19.3359375 4.38765625 19.3359375 8.67765625 19.3359375 13.09765625 C17.54285156 13.15824219 15.74976562 13.21882813 13.90234375 13.28125 C11.56769926 13.36563474 9.23306431 13.45028376 6.8984375 13.53515625 C5.71443359 13.57447266 4.53042969 13.61378906 3.31054688 13.65429688 C2.18583984 13.69619141 1.06113281 13.73808594 -0.09765625 13.78125 C-1.13978271 13.81790771 -2.18190918 13.85456543 -3.25561523 13.89233398 C-5.6140451 13.83280966 -5.6140451 13.83280966 -6.6640625 15.09765625 C-6.76468997 18.10579111 -6.8002099 21.09100654 -6.79345703 24.09960938 C-6.79520935 25.04424545 -6.79696167 25.98888153 -6.79876709 26.96214294 C-6.8031873 30.10108245 -6.80024702 33.23996612 -6.796875 36.37890625 C-6.79754799 38.54984549 -6.79851797 40.72078465 -6.79977417 42.89172363 C-6.80125137 47.44816808 -6.79909587 52.00459297 -6.79443359 56.56103516 C-6.7887363 62.41592211 -6.79201518 68.27076323 -6.79800606 74.1256485 C-6.80161107 78.61045683 -6.80047336 83.09525421 -6.79787827 87.58006287 C-6.79720883 89.73953761 -6.798038 91.89901334 -6.80035782 94.05848694 C-6.80288336 97.07091933 -6.79904514 100.08327638 -6.79345703 103.09570312 C-6.79548126 103.99755844 -6.79750549 104.89941376 -6.79959106 105.82859802 C-7.18164653 109.77872609 -7.18164653 109.77872609 -5.6640625 113.09765625 C-3.67518756 113.19696158 -1.68275833 113.22565087 0.30859375 113.22705078 C1.58661865 113.23020294 2.86464355 113.2333551 4.18139648 113.23660278 C5.58707717 113.234813 6.99275755 113.23276205 8.3984375 113.23046875 C9.82950863 113.23114183 11.26057965 113.23211189 12.69165039 113.23336792 C15.69450974 113.23484469 18.6973394 113.23269101 21.70019531 113.22802734 C25.55746321 113.22233006 29.41466154 113.22560917 33.27192688 113.23159981 C36.22807341 113.23520599 39.18420333 113.23406657 42.14035034 113.23147202 C43.56297819 113.2308029 44.98560753 113.23163062 46.40823364 113.23395157 C48.39324924 113.23647899 50.37827009 113.23194667 52.36328125 113.22705078 C53.49499756 113.22625519 54.62671387 113.22545959 55.79272461 113.22463989 C58.27125261 113.38599607 58.27125261 113.38599607 59.3359375 112.09765625 C59.45930924 110.25733636 59.51385058 108.41236214 59.54125977 106.56811523 C59.56120499 105.3869664 59.58115021 104.20581757 59.60169983 102.98887634 C59.61841232 101.70348465 59.63512482 100.41809296 59.65234375 99.09375 C59.6835154 97.13152245 59.6835154 97.13152245 59.71531677 95.12965393 C59.7706005 91.64610178 59.81998181 88.16248965 59.86816406 84.67883301 C59.91833324 81.12632895 59.97404317 77.57391235 60.02929688 74.02148438 C60.13695541 67.04695079 60.23838317 60.07233827 60.3359375 53.09765625 C61.9859375 53.09765625 63.6359375 53.09765625 65.3359375 53.09765625 C65.42869737 61.61657778 65.49973232 70.13528763 65.54318619 78.65458965 C65.56404402 82.61064708 65.59232786 86.5663585 65.63769531 90.5222168 C65.68121871 94.34126489 65.70508819 98.15998058 65.71544647 101.97925758 C65.7228263 103.43491663 65.7372377 104.89055787 65.75885773 106.34607506 C65.78798026 108.38825892 65.79189014 110.42907679 65.79003906 112.47143555 C65.79892151 113.6328154 65.80780396 114.79419525 65.81695557 115.99076843 C65.22664447 119.80357815 64.05035146 121.39638593 61.3359375 124.09765625 C58.06955746 126.35627628 55.19966773 126.36041207 51.28564453 126.38818359 C50.06402618 126.4009433 48.84240784 126.413703 47.58377075 126.42684937 C45.60871048 126.43018784 45.60871048 126.43018784 43.59375 126.43359375 C42.22378399 126.44002446 40.85381935 126.44675302 39.4838562 126.45376587 C36.61404233 126.46572956 33.74434876 126.46944766 30.87451172 126.46826172 C27.20697657 126.46805862 23.54021713 126.49535395 19.87286568 126.52980614 C17.04345191 126.55210464 14.21422392 126.55609837 11.38473129 126.55504227 C9.37842824 126.55853341 7.37218318 126.58017854 5.36599731 126.60214233 C-6.16064172 126.54438104 -6.16064172 126.54438104 -10.6640625 122.09765625 C-12.4724526 119.12314665 -12.91827704 116.90353143 -12.93821716 113.44302368 C-12.94819229 112.51222488 -12.95816742 111.58142609 -12.96844482 110.62242126 C-12.9691095 109.60829666 -12.96977417 108.59417206 -12.97045898 107.54931641 C-12.9787825 106.47572372 -12.98710602 105.40213104 -12.99568176 104.29600525 C-13.01980023 100.74287299 -13.02855596 97.18992422 -13.03515625 93.63671875 C-13.04412068 91.16816146 -13.05324249 88.69960474 -13.06251526 86.23104858 C-13.07901251 81.05440957 -13.08670681 75.8778353 -13.08959961 70.70117188 C-13.09498613 64.06752273 -13.13267518 57.43448173 -13.17834377 50.80100441 C-13.20808249 45.70176978 -13.21532248 40.6026822 -13.21632576 35.50336838 C-13.22053383 33.05772489 -13.23299145 30.61208119 -13.25384331 28.16652298 C-13.28069184 24.74548825 -13.27595063 21.32587137 -13.26342773 17.90478516 C-13.27826202 16.89470901 -13.29309631 15.88463287 -13.30838013 14.84394836 C-13.261052 10.30467069 -13.16964744 7.1036533 -10.25160217 3.48471069 C-6.5686111 0.08708155 -4.90899368 -0.0247929 0 0 Z " fill="#383838" transform="translate(71.6640625,36.90234375)"/>
<path d="M0 0 C1.08139755 -0.01268417 2.1627951 -0.02536835 3.27696228 -0.03843689 C4.43539139 -0.03550125 5.5938205 -0.03256561 6.78735352 -0.02954102 C7.98683121 -0.03478287 9.1863089 -0.04002472 10.4221344 -0.04542542 C12.95638251 -0.05184306 15.49066043 -0.050512 18.02490234 -0.04199219 C21.898734 -0.03348575 25.77108949 -0.06224463 29.64477539 -0.09399414 C32.10896766 -0.09560635 34.57316253 -0.09502824 37.03735352 -0.09204102 C38.77196083 -0.10889198 38.77196083 -0.10889198 40.54161072 -0.12608337 C48.05277103 -0.06111464 51.65687605 0.7728093 57.12329102 5.96655273 C61.61405848 11.49365116 61.65177217 15.88580718 61.71704102 22.82592773 C61.72511276 23.64474426 61.73318451 24.46356079 61.74150085 25.30718994 C61.75531031 27.03867495 61.76604645 28.77018683 61.77392578 30.50170898 C61.7854355 32.26285849 61.80587146 34.02397338 61.83544922 35.78491211 C61.87834573 38.34048979 61.89432507 40.89503369 61.90454102 43.45092773 C61.9220491 44.22829285 61.93955719 45.00565796 61.95759583 45.80657959 C61.93323656 52.02863286 60.32643115 57.32269501 56.03120422 61.97039795 C48.33049145 68.77184525 41.33656995 66.40405273 30.47875977 66.40405273 C30.47875977 87.85405273 30.47875977 109.30405273 30.47875977 131.40405273 C30.14875977 131.40405273 29.81875977 131.40405273 29.47875977 131.40405273 C29.47875977 109.95405273 29.47875977 88.50405273 29.47875977 66.40405273 C27.82875977 66.40405273 26.17875977 66.40405273 24.47875977 66.40405273 C24.47875977 85.87405273 24.47875977 105.34405273 24.47875977 125.40405273 C24.14875977 125.40405273 23.81875977 125.40405273 23.47875977 125.40405273 C23.47875977 105.93405273 23.47875977 86.46405273 23.47875977 66.40405273 C3.61715234 65.38094838 3.61715234 65.38094838 -5.52124023 73.40405273 C-9.27124023 74.02905273 -9.27124023 74.02905273 -12.52124023 73.40405273 C-15.16665657 71.34111697 -16.3755602 70.1621994 -17.01571655 66.83070374 C-17.01286652 65.85983322 -17.01001648 64.88896271 -17.00708008 63.88867188 C-17.01323334 62.78395035 -17.0193866 61.67922882 -17.02572632 60.54103088 C-17.01135529 59.35242966 -16.99698425 58.16382843 -16.98217773 56.93920898 C-16.98126129 55.71374863 -16.98034485 54.48828827 -16.97940063 53.22569275 C-16.9733587 50.6341464 -16.9575952 48.04260723 -16.93286133 45.45117188 C-16.89641284 41.48533366 -16.89184159 37.52043138 -16.89233398 33.55444336 C-16.88250064 31.03685716 -16.8708427 28.5192773 -16.85717773 26.00170898 C-16.85495209 24.81513199 -16.85272644 23.62855499 -16.85043335 22.40602112 C-16.83767365 21.29814743 -16.82491394 20.19027374 -16.81176758 19.04882812 C-16.80414398 18.07716202 -16.79652039 17.10549591 -16.78866577 16.10438538 C-16.26733815 10.84027334 -14.0658561 7.25249281 -10.52124023 3.40405273 C-6.89778051 0.83753294 -4.42268265 0.02520991 0 0 Z M-9.86962891 10.84838867 C-12.26741739 16.01045688 -12.03651743 20.67082168 -11.94702148 26.29467773 C-11.94373337 27.43563904 -11.94044525 28.57660034 -11.9370575 29.75213623 C-11.92665814 32.15602347 -11.90674491 34.55988602 -11.87792969 36.96362305 C-11.83373077 40.65484311 -11.81647323 44.3454129 -11.80444336 48.03686523 C-11.79102424 50.37281218 -11.77610265 52.70875109 -11.75952148 55.04467773 C-11.75213455 56.15296936 -11.74474762 57.26126099 -11.73713684 58.40313721 C-11.72430161 59.4246991 -11.71146637 60.44626099 -11.69824219 61.4987793 C-11.68839798 62.40001526 -11.67855377 63.30125122 -11.66841125 64.22979736 C-11.65850225 66.4510194 -11.65850225 66.4510194 -10.52124023 68.40405273 C-7.14071897 67.81228516 -5.47480021 66.65812657 -2.95166016 64.38085938 C2.00386917 60.55567511 6.28150555 60.61990269 12.36547852 60.77514648 C13.38551468 60.77329849 14.40555084 60.7714505 15.45649719 60.76954651 C18.69391724 60.76531665 21.92913455 60.79936186 25.16625977 60.84155273 C28.41393866 60.87837886 31.66025825 60.90606798 34.90815735 60.90284729 C36.92275313 60.90108205 38.93753331 60.9222003 40.95158386 60.96910095 C46.66794566 60.97065112 46.66794566 60.97065112 51.50927734 58.06054688 C55.20251978 53.07899599 55.82167156 49.90384361 55.88500977 43.82592773 C55.90210999 42.55872894 55.90210999 42.55872894 55.91955566 41.26593018 C55.93844537 39.47722371 55.9515196 37.6884478 55.95922852 35.8996582 C55.97859502 33.17721204 56.04061277 30.45781806 56.10375977 27.73608398 C56.11682579 25.99521644 56.1273244 24.25432735 56.13500977 22.51342773 C56.15970337 21.7058905 56.18439697 20.89835327 56.20983887 20.06634521 C56.16701665 14.56857559 54.79737923 11.73658917 51.06115723 7.71270752 C48.18630894 5.33518603 45.3983737 5.27237118 41.82714844 5.24291992 C40.41504341 5.22850861 40.41504341 5.22850861 38.97441101 5.21380615 C37.95877579 5.20955627 36.94314056 5.2053064 35.89672852 5.20092773 C34.32632561 5.19237762 34.32632561 5.19237762 32.72419739 5.18365479 C30.50754812 5.17420507 28.29088481 5.16767092 26.07421875 5.16381836 C22.68993486 5.15412058 19.30626028 5.1230996 15.92211914 5.09155273 C13.76782587 5.08502175 11.61352826 5.07977165 9.45922852 5.07592773 C8.44966599 5.06358093 7.44010345 5.05123413 6.39994812 5.03851318 C-0.47304987 5.0602057 -4.91328511 5.68954533 -9.86962891 10.84838867 Z " fill="#D1D1D2" transform="translate(107.521240234375,23.595947265625)"/>
<path d="M0 0 C1.34888732 0.00015905 2.69778075 0.00584927 4.04663086 0.01586914 C5.10991859 0.01799156 5.10991859 0.01799156 6.19468689 0.02015686 C8.46699173 0.02577096 10.73919936 0.03832576 13.01147461 0.05102539 C14.54858257 0.05603858 16.08569206 0.0606018 17.62280273 0.06469727 C21.39823103 0.07574497 25.17358632 0.09301898 28.94897461 0.11352539 C31.87866211 6.75415039 31.87866211 6.75415039 32.51147461 9.98852539 C32.65584961 10.68977539 32.80022461 11.39102539 32.94897461 12.11352539 C33.60897461 12.44352539 34.26897461 12.77352539 34.94897461 13.11352539 C34.94897461 18.39352539 34.94897461 23.67352539 34.94897461 29.11352539 C34.28897461 29.11352539 33.62897461 29.11352539 32.94897461 29.11352539 C32.94897461 31.09352539 32.94897461 33.07352539 32.94897461 35.11352539 C30.63897461 35.11352539 28.32897461 35.11352539 25.94897461 35.11352539 C25.94897461 33.13352539 25.94897461 31.15352539 25.94897461 29.11352539 C17.36897461 29.11352539 8.78897461 29.11352539 -0.05102539 29.11352539 C-0.05102539 31.09352539 -0.05102539 33.07352539 -0.05102539 35.11352539 C-2.69102539 35.11352539 -5.33102539 35.11352539 -8.05102539 35.11352539 C-8.05102539 33.13352539 -8.05102539 31.15352539 -8.05102539 29.11352539 C-8.71102539 29.11352539 -9.37102539 29.11352539 -10.05102539 29.11352539 C-10.13199769 26.67535954 -10.19149511 24.23988155 -10.23852539 21.80102539 C-10.26366211 21.11073242 -10.28879883 20.42043945 -10.31469727 19.70922852 C-10.39001061 14.51260771 -10.39001061 14.51260771 -8.64086914 12.45336914 C-8.1162207 12.0112207 -7.59157227 11.56907227 -7.05102539 11.11352539 C-6.08674899 8.65594312 -6.08674899 8.65594312 -5.42602539 5.98852539 C-3.85034712 0.1432673 -3.85034712 0.1432673 0 0 Z " fill="#BB3749" transform="translate(117.051025390625,41.886474609375)"/>
<path d="M0 0 C3.33241519 1.70762384 6.30195334 3.60390668 8 7 C9.01637271 16.00215829 5.72340323 22.83341723 0.48828125 30.09765625 C-0.62207537 31.44344666 -1.80203502 32.73156649 -3 34 C-7.3027144 32.51097075 -8.99177097 29.36556653 -11.1875 25.625 C-11.54263672 25.0475 -11.89777344 24.47 -12.26367188 23.875 C-15.50478845 18.48748934 -17.10814825 13.34445315 -16 7 C-12.44207475 0.61221915 -7.06767804 -1.18871367 0 0 Z " fill="#BF2E42" transform="translate(101,107)"/>
<path d="M0 0 C9.57 0 19.14 0 29 0 C31 5 31 5 31 10 C20.44 10 9.88 10 -1 10 C-0.67 6.7 -0.34 3.4 0 0 Z " fill="#84D5D9" transform="translate(115,44)"/>
<path d="M0 0 C10.56 0 21.12 0 32 0 C35 7 35 7 35.5625 9.875 C35.706875 10.57625 35.85125 11.2775 36 12 C36.66 12.33 37.32 12.66 38 13 C38 18.28 38 23.56 38 29 C37.34 29 36.68 29 36 29 C36 30.98 36 32.96 36 35 C33.69 35 31.38 35 29 35 C29 33.02 29 31.04 29 29 C29.99 28.67 30.98 28.34 32 28 C32 27.01 32 26.02 32 25 C31.01 24.34 30.02 23.68 29 23 C30.65 22.67 32.3 22.34 34 22 C33.22520264 19.00847418 33.22520264 19.00847418 32 16 C28.85165657 14.95055219 26.61256573 14.87084494 23.30859375 14.8671875 C22.19935547 14.86589844 21.09011719 14.86460938 19.94726562 14.86328125 C18.78904297 14.86714844 17.63082031 14.87101562 16.4375 14.875 C15.27541016 14.87113281 14.11332031 14.86726563 12.91601562 14.86328125 C11.2540918 14.86521484 11.2540918 14.86521484 9.55859375 14.8671875 C8.54079834 14.86831543 7.52300293 14.86944336 6.47436523 14.87060547 C3.99719113 14.83478194 3.99719113 14.83478194 2 16 C1.01 15.34 0.02 14.68 -1 14 C1.95810476 12.52094762 4.9547155 12.87809097 8.1953125 12.90234375 C8.90275604 12.9037587 9.61019958 12.90517365 10.33908081 12.90663147 C12.60109669 12.912234 14.86301398 12.92478682 17.125 12.9375 C18.65755065 12.94251468 20.19010286 12.94707764 21.72265625 12.95117188 C25.48180888 12.96220423 29.24088772 12.97947048 33 13 C32.01 9.37 31.02 5.74 30 2 C20.43 2 10.86 2 1 2 C0.67 4.64 0.34 7.28 0 10 C-0.99 10.495 -0.99 10.495 -2 11 C-2.17700355 6.39790775 -2.10814567 4.21629134 0 0 Z " fill="#BB1532" transform="translate(114,42)"/>
<path d="M0 0 C1.9375 1.0625 1.9375 1.0625 3 3 C2.9375 6.5625 2.9375 6.5625 2 10 C-0.34942542 12.01379322 -1.55611943 12.03170576 -4.625 11.8125 C-7 11 -7 11 -9 8 C-9.35384949 5.16920408 -9.3920891 3.63169911 -7.875 1.1875 C-5.12844028 -0.55198782 -3.18153026 -0.39769128 0 0 Z " fill="#E6DEEB" transform="translate(100,113)"/>
<path d="M0 0 C0.99 0.33 1.98 0.66 3 1 C3 6.28 3 11.56 3 17 C2.34 17 1.68 17 1 17 C1 18.98 1 20.96 1 23 C-1.31 23 -3.62 23 -6 23 C-6 21.02 -6 19.04 -6 17 C-5.01 16.67 -4.02 16.34 -3 16 C-3 15.01 -3 14.02 -3 13 C-3.99 12.34 -4.98 11.68 -6 11 C-4.35 10.67 -2.7 10.34 -1 10 C-0.855625 9.38125 -0.71125 8.7625 -0.5625 8.125 C0 6 0 6 1 4 C0.34 3.67 -0.32 3.34 -1 3 C-0.67 2.01 -0.34 1.02 0 0 Z " fill="#A53140" transform="translate(149,54)"/>
<path d="M0 0 C1.51400391 0.01740234 1.51400391 0.01740234 3.05859375 0.03515625 C4.07050781 0.04417969 5.08242187 0.05320313 6.125 0.0625 C7.29869141 0.07990234 7.29869141 0.07990234 8.49609375 0.09765625 C8.82609375 2.07765625 9.15609375 4.05765625 9.49609375 6.09765625 C4.87609375 6.09765625 0.25609375 6.09765625 -4.50390625 6.09765625 C-3.31019556 0.12910279 -3.31019556 0.12910279 0 0 Z " fill="#F6C26C" transform="translate(127.50390625,35.90234375)"/>
<path d="M0 0 C1.9375 0.8125 1.9375 0.8125 4 2 C4.33 2.99 4.66 3.98 5 5 C4.505 5.37125 4.01 5.7425 3.5 6.125 C1.40244486 8.74694393 1.78256165 10.73842472 2 14 C1.01 14.495 1.01 14.495 0 15 C0 13.02 0 11.04 0 9 C-0.99 9 -1.98 9 -3 9 C-3.33 10.65 -3.66 12.3 -4 14 C-4.33 14 -4.66 14 -5 14 C-5.602537 7.01057082 -5.602537 7.01057082 -3.88671875 4.1328125 C-2.66254412 2.69138998 -1.33721771 1.33721771 0 0 Z " fill="#BD394C" transform="translate(90,108)"/>
<path d="M0 0 C10.56 0 21.12 0 32 0 C32 0.33 32 0.66 32 1 C21.77 1 11.54 1 1 1 C0.67 3.97 0.34 6.94 0 10 C-0.99 10.495 -0.99 10.495 -2 11 C-2.17700355 6.39790775 -2.10814567 4.21629134 0 0 Z " fill="#B4313F" transform="translate(114,42)"/>
<path d="M0 0 C2.625 0.375 2.625 0.375 5 1 C5.625 3.375 5.625 3.375 6 6 C4 8 4 8 1.4375 8.1875 C-1 8 -1 8 -2 7 C-2.1875 4.5625 -2.1875 4.5625 -2 2 C-1.34 1.34 -0.68 0.68 0 0 Z " fill="#F1E6E7" transform="translate(113,57)"/>
<path d="M0 0 C0.38133299 1.9914056 0.71325582 3.99279077 1 6 C0 7 0 7 -2.28515625 7.09765625 C-3.65994141 7.08025391 -3.65994141 7.08025391 -5.0625 7.0625 C-5.98160156 7.05347656 -6.90070313 7.04445313 -7.84765625 7.03515625 C-8.55792969 7.02355469 -9.26820313 7.01195312 -10 7 C-9.09827532 5.82174642 -8.17798498 4.65768423 -7.25 3.5 C-6.73953125 2.8503125 -6.2290625 2.200625 -5.703125 1.53125 C-4 0 -4 0 0 0 Z " fill="#69CACB" transform="translate(145,46)"/>
<path d="M0 0 C1 1 1 1 1.0625 3.5625 C1.041875 4.366875 1.02125 5.17125 1 6 C-0.98 6.33 -2.96 6.66 -5 7 C-5.33 4.69 -5.66 2.38 -6 0 C-3.49749232 -1.25125384 -2.59701335 -0.83774624 0 0 Z " fill="#F4EDEE" transform="translate(147,58)"/>
<path d="M0 0 C1.98 0 3.96 0 6 0 C6 1.98 6 3.96 6 6 C4.02 6 2.04 6 0 6 C0 4.02 0 2.04 0 0 Z " fill="#1C0F10" transform="translate(110,71)"/>
<path d="M0 0 C2.0625 1.75 2.0625 1.75 4 4 C3.75 6.25 3.75 6.25 3 8 C-3.875 5.25 -3.875 5.25 -5 3 C-4.360625 2.87625 -3.72125 2.7525 -3.0625 2.625 C-2.0415625 2.315625 -2.0415625 2.315625 -1 2 C-0.67 1.34 -0.34 0.68 0 0 Z " fill="#C13347" transform="translate(105,110)"/>
<path d="M0 0 C2 3 2 3 2 5 C2.66 5.33 3.32 5.66 4 6 C3.34 6 2.68 6 2 6 C1.34 8.31 0.68 10.62 0 13 C-0.33 13 -0.66 13 -1 13 C-3.33846154 5.73846154 -3.33846154 5.73846154 -1.625 2 C-1.08875 1.34 -0.5525 0.68 0 0 Z " fill="#BA3C4E" transform="translate(111,50)"/>
<path d="M0 0 C1.65 0 3.3 0 5 0 C5 1.65 5 3.3 5 5 C3.35 5 1.7 5 0 5 C0 3.35 0 1.7 0 0 Z " fill="#120D0E" transform="translate(144,72)"/>
<path d="M0 0 C0.99 0.99 1.98 1.98 3 3 C2.01 4.32 1.02 5.64 0 7 C-1.32 6.34 -2.64 5.68 -4 5 C-4 4.34 -4 3.68 -4 3 C-3.01 2.67 -2.02 2.34 -1 2 C-0.67 1.34 -0.34 0.68 0 0 Z " fill="#BB384B" transform="translate(98,134)"/>
<path d="M0 0 C0.99 0 1.98 0 3 0 C5.09230769 4.43076923 5.09230769 4.43076923 4.625 7.3125 C4.41875 7.869375 4.2125 8.42625 4 9 C4 8.01 4 7.02 4 6 C3.01 5.67 2.02 5.34 1 5 C0.67 3.35 0.34 1.7 0 0 Z " fill="#B34957" transform="translate(144,44)"/>
<path d="M0 0 C1.32 0.66 2.64 1.32 4 2 C3.67 2.99 3.34 3.98 3 5 C1.35 5 -0.3 5 -2 5 C-1.34 4.67 -0.68 4.34 0 4 C0 2.68 0 1.36 0 0 Z " fill="#BC2439" transform="translate(101,108)"/>
<path d="M0 0 C0.6875 1.625 0.6875 1.625 1 4 C-0.4375 7.25 -0.4375 7.25 -2 10 C-3 8 -3 8 -2.125 5 C-1 2 -1 2 0 0 Z " fill="#B02D3F" transform="translate(108,119)"/>
<path d="M0 0 C2.0625 1.75 2.0625 1.75 4 4 C3.75 6.25 3.75 6.25 3 8 C2.34 7.67 1.68 7.34 1 7 C0.59270772 4.67843403 0.25561323 2.3431213 0 0 Z " fill="#B84553" transform="translate(105,110)"/>
</svg>
