<?xml version="1.0" encoding="UTF-8"?>
<svg version="1.1" xmlns="http://www.w3.org/2000/svg" width="148" height="148">
<path d="M0 0 C48.84 0 97.68 0 148 0 C148 48.84 148 97.68 148 148 C99.16 148 50.32 148 0 148 C0 99.16 0 50.32 0 0 Z " fill="#FEFEFE" transform="translate(0,0)"/>
<path d="M0 0 C3.51849717 0.63972676 5.79815008 2.21847501 8.74609375 4.1875 C11.30426153 5.8630251 13.99060259 7.18928623 16.75 8.5 C16.75 9.16 16.75 9.82 16.75 10.5 C18.73 10.83 20.71 11.16 22.75 11.5 C22.75 12.16 22.75 12.82 22.75 13.5 C23.82507813 13.90025391 23.82507813 13.90025391 24.921875 14.30859375 C27.79463859 15.51880493 30.33975569 16.94166252 33 18.5625 C33.87140625 19.08972656 34.7428125 19.61695312 35.640625 20.16015625 C37.75 21.5 37.75 21.5 38.75 22.5 C38.82325168 25.36267567 38.84238205 28.200719 38.8125 31.0625 C38.80798828 31.86880859 38.80347656 32.67511719 38.79882812 33.50585938 C38.78700518 35.50393756 38.76906914 37.50197783 38.75 39.5 C38.09 39.5 37.43 39.5 36.75 39.5 C36.75 41.15 36.75 42.8 36.75 44.5 C37.74 44.17 38.73 43.84 39.75 43.5 C39.89575327 46.89537852 39.98421542 50.28994902 40.0625 53.6875 C40.10439453 54.64720703 40.14628906 55.60691406 40.18945312 56.59570312 C40.31126645 63.63651316 40.31126645 63.63651316 37.97265625 67.234375 C33.10969307 70.65318548 28.04291472 73.63028364 22.875 76.5625 C21.27978516 77.47999023 21.27978516 77.47999023 19.65234375 78.41601562 C17.59909159 79.59567913 15.54320754 80.77077682 13.484375 81.94067383 C11.83231083 82.88279292 10.18494287 83.83331107 8.546875 84.79956055 C4.21846095 87.35015158 1.82382836 88.43020187 -3.25 87.5 C-8.1848283 86.19116868 -11.23890931 84.69953887 -14.25 80.5 C-15.6524158 73.41894971 -16.5548111 62.1096222 -13.25 55.5 C-13.30690612 54.05566852 -13.4243422 52.61344211 -13.57421875 51.17578125 C-14.6422883 37.12797347 -14.6422883 37.12797347 -10.7578125 32.5859375 C-6.72530424 30.19009518 -3.41505436 28.33495101 1.36328125 28.69921875 C4.73428588 29.83024322 7.48441626 31.63707515 10.46875 33.5390625 C13.30209132 34.73255901 14.84754002 34.34825415 17.75 33.5 C13.77699269 30.10334772 9.62383188 27.61432261 5.0625 25.125 C3.63608307 24.33578324 2.21030088 23.54541817 0.78515625 22.75390625 C-0.24907471 22.17987061 -0.24907471 22.17987061 -1.30419922 21.59423828 C-4.66235927 19.70574727 -7.95099679 17.70620652 -11.234375 15.69140625 C-13.2003897 14.52932392 -15.19515539 13.49502611 -17.25 12.5 C-17.25 11.51 -17.25 10.52 -17.25 9.5 C-16.50234375 9.10167969 -15.7546875 8.70335937 -14.984375 8.29296875 C-13.99953125 7.76316406 -13.0146875 7.23335937 -12 6.6875 C-11.02546875 6.16542969 -10.0509375 5.64335938 -9.046875 5.10546875 C-6.27839787 3.59266172 -6.27839787 3.59266172 -4.03125 1.83203125 C-2.25 0.5 -2.25 0.5 0 0 Z " fill="#F4F1FA" transform="translate(73.25,29.5)"/>
<path d="M0 0 C3.51849717 0.63972676 5.79815008 2.21847501 8.74609375 4.1875 C11.30426153 5.8630251 13.99060259 7.18928623 16.75 8.5 C16.75 9.16 16.75 9.82 16.75 10.5 C18.73 10.83 20.71 11.16 22.75 11.5 C22.75 12.16 22.75 12.82 22.75 13.5 C23.82507813 13.90025391 23.82507813 13.90025391 24.921875 14.30859375 C27.79463859 15.51880493 30.33975569 16.94166252 33 18.5625 C33.87140625 19.08972656 34.7428125 19.61695312 35.640625 20.16015625 C37.75 21.5 37.75 21.5 38.75 22.5 C38.82325168 25.36267567 38.84238205 28.200719 38.8125 31.0625 C38.80798828 31.86880859 38.80347656 32.67511719 38.79882812 33.50585938 C38.78700518 35.50393756 38.76906914 37.50197783 38.75 39.5 C36.46125827 40.83858524 34.16930344 42.17101014 31.875 43.5 C31.22402344 43.8815625 30.57304688 44.263125 29.90234375 44.65625 C24.9765625 47.5 24.9765625 47.5 22.75 47.5 C22.75 48.16 22.75 48.82 22.75 49.5 C21.76 49.5 20.77 49.5 19.75 49.5 C19.75 43.89 19.75 38.28 19.75 32.5 C17.275 31.51 17.275 31.51 14.75 30.5 C9.03397114 27.62417863 3.55176206 24.42236812 -1.8125 20.9375 C-6.78060976 17.71610318 -11.89634711 15.02004919 -17.25 12.5 C-17.25 11.51 -17.25 10.52 -17.25 9.5 C-16.50234375 9.10167969 -15.7546875 8.70335937 -14.984375 8.29296875 C-13.99953125 7.76316406 -13.0146875 7.23335937 -12 6.6875 C-11.02546875 6.16542969 -10.0509375 5.64335938 -9.046875 5.10546875 C-6.27839787 3.59266172 -6.27839787 3.59266172 -4.03125 1.83203125 C-2.25 0.5 -2.25 0.5 0 0 Z " fill="#C6A8FB" transform="translate(73.25,29.5)"/>
<path d="M0 0 C2.69183986 1.38257075 5.24726503 2.95953499 7.8125 4.5625 C8.50537109 4.98724609 9.19824219 5.41199219 9.91210938 5.84960938 C11.61216951 6.89309456 13.30665476 7.94565296 15 9 C11.89721434 12.25053735 9.14709378 14.19691575 5 16 C4.34 16 3.68 16 3 16 C2.67 31.18 2.34 46.36 2 62 C-1.80241571 60.47903372 -5.36474615 58.85989732 -9 57 C-9 56.34 -9 55.68 -9 55 C-9.94875 54.71125 -10.8975 54.4225 -11.875 54.125 C-15 53 -15 53 -17 51 C-17.30780029 49.13618469 -17.30780029 49.13618469 -17.38574219 46.8449707 C-17.43393097 45.55771843 -17.43393097 45.55771843 -17.48309326 44.24446106 C-17.57216965 40.30794524 -17.65416334 36.3721036 -17.70019531 32.43481445 C-17.73326295 30.36176566 -17.78778097 28.28894258 -17.86425781 26.21704102 C-18.49713815 8.97930665 -18.49713815 8.97930665 -14.79101562 4.07958984 C-12.22919812 2.27442146 -9.94110438 1.05400746 -7 0 C-4.17786833 -1.41106583 -3.03501539 -0.89849705 0 0 Z " fill="#A88AFB" transform="translate(53,45)"/>
<path d="M0 0 C0.26292291 3.3735032 0.42164057 6.74437371 0.5625 10.125 C0.63791016 11.07632813 0.71332031 12.02765625 0.79101562 13.0078125 C1.00675103 19.91134531 1.00675103 19.91134531 -1.66552734 22.80102539 C-4.03534287 24.40977264 -6.44343497 25.70938905 -9 27 C-10.76909274 28.02921862 -12.53467241 29.06449703 -14.296875 30.10546875 C-16.11268265 31.1361682 -17.93040946 32.16349363 -19.75 33.1875 C-21.57837633 34.22221227 -23.40650937 35.25735458 -25.234375 36.29296875 C-26.42885254 36.96622192 -26.42885254 36.96622192 -27.64746094 37.65307617 C-29.32743385 38.61492866 -30.97944339 39.62630513 -32.61035156 40.66918945 C-35 42 -35 42 -38 42 C-38 35.07 -38 28.14 -38 21 C-34.5659375 19.081875 -34.5659375 19.081875 -31.0625 17.125 C-24.18102564 13.26869747 -17.3663746 9.30742769 -10.58618164 5.27587891 C-9.91321045 4.87675293 -9.24023926 4.47762695 -8.546875 4.06640625 C-7.95745117 3.71521729 -7.36802734 3.36402832 -6.76074219 3.00219727 C-1.4862363 0 -1.4862363 0 0 0 Z " fill="#604BAF" transform="translate(112,75)"/>
<path d="M0 0 C0.97582031 0.54785156 1.95164062 1.09570312 2.95703125 1.66015625 C3.69308594 2.08167969 4.42914063 2.50320312 5.1875 2.9375 C6.61275948 15.40852044 6.61275948 15.40852044 5.1875 20.9375 C1.78152481 24.79760521 -1.83694731 26.69663832 -6.8125 27.9375 C-11.95637784 27.54383588 -16.37354295 26.1281928 -20.75 23.40625 C-24.22648041 19.24500829 -24.22604041 14.842284 -24.15454102 9.56933594 C-23.76962053 5.29596895 -23.24348718 3.40766784 -20.27734375 0.171875 C-12.22468712 -4.73755135 -8.04804705 -4.55732785 0 0 Z " fill="#C5A6FD" transform="translate(82.8125,62.0625)"/>
<path d="M0 0 C2.68859581 1.38902299 5.24712491 2.95944743 7.8125 4.5625 C8.50537109 4.98724609 9.19824219 5.41199219 9.91210938 5.84960938 C11.61216951 6.89309456 13.30665476 7.94565296 15 9 C11.89721434 12.25053735 9.14709378 14.19691575 5 16 C4.34 16 3.68 16 3 16 C2.67 31.18 2.34 46.36 2 62 C1.34 61.67 0.68 61.34 0 61 C0.33 46.48 0.66 31.96 1 17 C0.01 17 -0.98 17 -2 17 C-2.33 16.34 -2.66 15.68 -3 15 C-5.31104818 13.94952356 -7.64583651 12.94992562 -10 12 C-10.66 11.67 -11.32 11.34 -12 11 C-12 10.34 -12 9.68 -12 9 C-13.65 8.67 -15.3 8.34 -17 8 C-12.34491134 2.92172147 -7.30811317 -2.33983313 0 0 Z " fill="#C5A6FA" transform="translate(53,45)"/>
<path d="M0 0 C4.62 2.31 9.24 4.62 14 7 C14 13.93 14 20.86 14 28 C9 27 9 27 0 22 C0 14.74 0 7.48 0 0 Z " fill="#A88DFC" transform="translate(60,89)"/>
<path d="M0 0 C0 5.28 0 10.56 0 16 C-2.62214328 17.50519387 -5.24744208 19.00431319 -7.875 20.5 C-8.62136719 20.92925781 -9.36773437 21.35851562 -10.13671875 21.80078125 C-10.85214844 22.20683594 -11.56757812 22.61289063 -12.3046875 23.03125 C-12.96452637 23.40830078 -13.62436523 23.78535156 -14.30419922 24.17382812 C-16 25 -16 25 -18 25 C-19.79765537 14.14748796 -19.79765537 14.14748796 -18 9 C-13.88428527 4.25620124 -6.25490263 0 0 0 Z " fill="#624CB0" transform="translate(112,53)"/>
<path d="M0 0 C0.33 0 0.66 0 1 0 C2.43558533 11.81699404 2.43558533 11.81699404 1 17 C-2.46240262 20.67320338 -6.16125571 22.61380016 -11 24 C-11.99 23.67 -12.98 23.34 -14 23 C-14.69553175 11.73773585 -14.69553175 11.73773585 -13 7 C-9.35965569 3.81732903 -5.56861791 2.44097396 -1 1 C-0.67 0.67 -0.34 0.34 0 0 Z " fill="#624AB1" transform="translate(87,66)"/>
<path d="M0 0 C0.33 0.66 0.66 1.32 1 2 C2.66666667 2.33333333 4.33333333 2.66666667 6 3 C8.02237052 3.95394836 10.0282696 4.94535351 12 6 C12 6.66 12 7.32 12 8 C12.66 8 13.32 8 14 8 C14 12.95 14 17.9 14 23 C5.29126712 21.54854452 5.29126712 21.54854452 1.5703125 19.20703125 C-2.11687277 14.02479325 -0.4799911 6.0465546 0 0 Z " fill="#A78CF4" transform="translate(60,66)"/>
<path d="M0 0 C2.69183986 1.38257075 5.24726503 2.95953499 7.8125 4.5625 C8.50537109 4.98724609 9.19824219 5.41199219 9.91210938 5.84960938 C11.61216951 6.89309456 13.30665476 7.94565296 15 9 C11.89721434 12.25053735 9.14709378 14.19691575 5 16 C4.34 16 3.68 16 3 16 C2.67 31.18 2.34 46.36 2 62 C1.34 61.67 0.68 61.34 0 61 C0.01625139 54.36087464 0.07095139 47.7228699 0.15258789 41.08422852 C0.17580667 38.82518785 0.19017265 36.56603834 0.19555664 34.30688477 C0.20481765 31.06196961 0.245747 27.81877572 0.29296875 24.57421875 C0.28706978 23.05534309 0.28706978 23.05534309 0.28105164 21.50578308 C0.3353311 18.90622657 0.42280783 16.53515983 1 14 C3.3996582 11.81958008 3.3996582 11.81958008 6 11 C8.3125 11.3125 8.3125 11.3125 10 12 C10 11.34 10 10.68 10 10 C9.01 10 8.02 10 7 10 C6.67 8.68 6.34 7.36 6 6 C5.34 6 4.68 6 4 6 C4 5.34 4 4.68 4 4 C2.68 4 1.36 4 0 4 C-0.33 3.34 -0.66 2.68 -1 2 C-3.02463255 1.34786708 -3.02463255 1.34786708 -5 1 C-5 1.99 -5 2.98 -5 4 C-7.31 4 -9.62 4 -12 4 C-5.20714263 -1.54154154 -5.20714263 -1.54154154 0 0 Z " fill="#C9B7EA" transform="translate(53,45)"/>
<path d="M0 0 C0.66 0 1.32 0 2 0 C2 13.86 2 27.72 2 42 C3.32 42.33 4.64 42.66 6 43 C6 43.66 6 44.32 6 45 C7.0828125 45.433125 7.0828125 45.433125 8.1875 45.875 C10.79166667 46.91666667 13.39583333 47.95833333 16 49 C16.33 35.8 16.66 22.6 17 9 C17.33 9 17.66 9 18 9 C18 23.52 18 38.04 18 53 C11.25 50.75 11.25 50.75 8 49 C8 48.34 8 47.68 8 47 C7.05125 46.71125 6.1025 46.4225 5.125 46.125 C2 45 2 45 0 43 C-0.24050903 41.12704468 -0.24050903 41.12704468 -0.22705078 38.82568359 C-0.22689972 37.96494232 -0.22674866 37.10420105 -0.22659302 36.21737671 C-0.21627045 35.28712677 -0.20594788 34.35687683 -0.1953125 33.3984375 C-0.1924826 32.44683746 -0.18965271 31.49523743 -0.18673706 30.51480103 C-0.17551989 27.46807408 -0.15041263 24.42163846 -0.125 21.375 C-0.11497218 19.31250424 -0.10584599 17.25000388 -0.09765625 15.1875 C-0.07557554 10.12488733 -0.0410353 5.0624931 0 0 Z " fill="#A694E7" transform="translate(36,53)"/>
<path d="M0 0 C3.3 0.33 6.6 0.66 10 1 C10 1.99 10 2.98 10 4 C10.71027344 4.25394531 11.42054687 4.50789063 12.15234375 4.76953125 C13.07144531 5.11371094 13.99054688 5.45789062 14.9375 5.8125 C15.85402344 6.14894531 16.77054688 6.48539063 17.71484375 6.83203125 C20 8 20 8 21 11 C22.96024772 11.99061266 22.96024772 11.99061266 25.3125 12.625 C26.09238281 12.86476563 26.87226562 13.10453125 27.67578125 13.3515625 C29.77647244 13.93763769 31.88065271 14.48592491 34 15 C35.19799449 19.14659373 34.8896192 22.99369047 34.5625 27.25 C34.51029297 27.99507812 34.45808594 28.74015625 34.40429688 29.5078125 C34.2751783 31.33894861 34.13834886 33.16953813 34 35 C34.99 35.495 34.99 35.495 36 36 C35.01 36 34.02 36 33 36 C33 30.39 33 24.78 33 19 C31.35 18.34 29.7 17.68 28 17 C21.22523827 13.59151396 14.82156369 9.66579053 8.4609375 5.546875 C5.70844971 3.81673982 2.95097062 2.35585136 0 1 C0 0.67 0 0.34 0 0 Z " fill="#C5B2E9" transform="translate(60,43)"/>
<path d="M0 0 C4.62 2.31 9.24 4.62 14 7 C14 13.93 14 20.86 14 28 C9 27 9 27 0 22 C0 14.74 0 7.48 0 0 Z M1 3 C-0.31258652 13.07764646 -0.31258652 13.07764646 2.640625 22.2421875 C6.31791256 24.54389712 8.60966138 25 13 25 C13 19.39 13 13.78 13 8 C11.7625 7.360625 10.525 6.72125 9.25 6.0625 C8.55390625 5.70285156 7.8578125 5.34320313 7.140625 4.97265625 C5.09775567 4.04441818 3.18884624 3.46833422 1 3 Z " fill="#9F8BDF" transform="translate(60,89)"/>
<path d="M0 0 C0.33 0 0.66 0 1 0 C1 5.28 1 10.56 1 16 C-1.62214328 17.50519387 -4.24744208 19.00431319 -6.875 20.5 C-7.62136719 20.92925781 -8.36773437 21.35851562 -9.13671875 21.80078125 C-9.85214844 22.20683594 -10.56757812 22.61289063 -11.3046875 23.03125 C-11.96452637 23.40830078 -12.62436523 23.78535156 -13.30419922 24.17382812 C-15 25 -15 25 -17 25 C-17 20.05 -17 15.1 -17 10 C-16.67 10 -16.34 10 -16 10 C-16 13.63 -16 17.26 -16 21 C-14.35 21 -12.7 21 -11 21 C-10.34 19.68 -9.68 18.36 -9 17 C-8.01 17 -7.02 17 -6 17 C-6 15.68 -6 14.36 -6 13 C-2.25 11 -2.25 11 0 11 C-0.12568359 9.93458984 -0.12568359 9.93458984 -0.25390625 8.84765625 C-0.35574219 7.92855469 -0.45757812 7.00945313 -0.5625 6.0625 C-0.66691406 5.14597656 -0.77132812 4.22945312 -0.87890625 3.28515625 C-0.91886719 2.53105469 -0.95882812 1.77695312 -1 1 C-0.67 0.67 -0.34 0.34 0 0 Z " fill="#604E9A" transform="translate(111,53)"/>
<path d="M0 0 C1.43558533 11.81699404 1.43558533 11.81699404 0 17 C-3.46240262 20.67320338 -7.16125571 22.61380016 -12 24 C-12.99 23.67 -13.98 23.34 -15 23 C-11.97411017 18.46116526 -8.06094603 17.88163378 -3 16 C-3 12.37 -3 8.74 -3 5 C-3.99 4.67 -4.98 4.34 -6 4 C-1.125 0 -1.125 0 0 0 Z " fill="#534296" transform="translate(88,66)"/>
<path d="M0 0 C0.33 1.32 0.66 2.64 1 4 C1.99 3.67 2.98 3.34 4 3 C4 9.93 4 16.86 4 24 C3.67 24 3.34 24 3 24 C2.67 18.06 2.34 12.12 2 6 C-0.31 7.32 -2.62 8.64 -5 10 C-5.66 10 -6.32 10 -7 10 C-7 8.02 -7 6.04 -7 4 C-4.69 2.68 -2.38 1.36 0 0 Z " fill="#E6E1EF" transform="translate(109,70)"/>
<path d="M0 0 C1.2065625 0.0309375 1.2065625 0.0309375 2.4375 0.0625 C-1.39112135 3.29426403 -5.35086021 5.84746265 -9.6875 8.3125 C-10.30753906 8.67601563 -10.92757812 9.03953125 -11.56640625 9.4140625 C-14.43966265 11.05768874 -16.19706707 12.0625 -19.5625 12.0625 C-19.2325 11.0725 -18.9025 10.0825 -18.5625 9.0625 C-17.9025 9.0625 -17.2425 9.0625 -16.5625 9.0625 C-15.9025 8.0725 -15.2425 7.0825 -14.5625 6.0625 C-12.4375 4.875 -12.4375 4.875 -10.5625 4.0625 C-10.5625 3.4025 -10.5625 2.7425 -10.5625 2.0625 C-8.8609375 1.8459375 -8.8609375 1.8459375 -7.125 1.625 C-3.80350664 1.10055368 -3.09809271 0.07556324 0 0 Z " fill="#62519C" transform="translate(93.5625,104.9375)"/>
<path d="M0 0 C0 0.66 0 1.32 0 2 C-1.65 2.33 -3.3 2.66 -5 3 C-5 3.66 -5 4.32 -5 5 C-8.63 6.98 -12.26 8.96 -16 11 C-16 11.66 -16 12.32 -16 13 C-17.32 12.67 -18.64 12.34 -20 12 C-20 11.01 -20 10.02 -20 9 C-19.25234375 8.60167969 -18.5046875 8.20335937 -17.734375 7.79296875 C-16.74953125 7.26316406 -15.7646875 6.73335937 -14.75 6.1875 C-13.77546875 5.66542969 -12.8009375 5.14335938 -11.796875 4.60546875 C-9.0262275 3.09906553 -9.0262275 3.09906553 -6.8125 1.3125 C-4.45218888 -0.39669081 -2.84554514 -0.23712876 0 0 Z " fill="#C9B8E6" transform="translate(76,30)"/>
<path d="M0 0 C0.66 0 1.32 0 2 0 C2 13.86 2 27.72 2 42 C3.32 42.66 4.64 43.32 6 44 C4.33388095 44.042721 2.66617115 44.04063832 1 44 C0 43 0 43 -0.12025452 41.24729919 C-0.11803391 40.48562943 -0.11581329 39.72395966 -0.11352539 38.93920898 C-0.11344986 38.07839218 -0.11337433 37.21757538 -0.11329651 36.33067322 C-0.10813522 35.39526199 -0.10297394 34.45985077 -0.09765625 33.49609375 C-0.0962413 32.54307877 -0.09482635 31.59006378 -0.09336853 30.60816956 C-0.08775152 27.55124835 -0.07519616 24.49439923 -0.0625 21.4375 C-0.05748719 19.37044376 -0.05292391 17.30338638 -0.04882812 15.23632812 C-0.03777656 10.15752412 -0.02050055 5.0787743 0 0 Z " fill="#A28DDF" transform="translate(36,53)"/>
<path d="M0 0 C1.32 0.33 2.64 0.66 4 1 C4 1.66 4 2.32 4 3 C5.07507813 3.4021875 5.07507813 3.4021875 6.171875 3.8125 C9.03057903 5.01283981 11.59146825 6.40806482 14.25 8 C15.55710937 8.7734375 15.55710937 8.7734375 16.890625 9.5625 C19 11 19 11 20 13 C16.535 14.485 16.535 14.485 13 16 C13 13.69 13 11.38 13 9 C11.35 8.67 9.7 8.34 8 8 C8 7.34 8 6.68 8 6 C5.525 5.01 5.525 5.01 3 4 C3 3.34 3 2.68 3 2 C2.01 2 1.02 2 0 2 C0 1.34 0 0.68 0 0 Z " fill="#C3AEEB" transform="translate(92,40)"/>
<path d="M0 0 C2.02045442 0.60183749 4.02111039 1.27306096 6 2 C6.33 2.66 6.66 3.32 7 4 C6.01 4.495 6.01 4.495 5 5 C5 5.99 5 6.98 5 8 C3.68 7.67 2.36 7.34 1 7 C0.67 13.6 0.34 20.2 0 27 C-0.33 27 -0.66 27 -1 27 C-1.02905924 23.2500163 -1.04681874 19.50006163 -1.0625 15.75 C-1.07087891 14.68652344 -1.07925781 13.62304688 -1.08789062 12.52734375 C-1.09111328 11.50253906 -1.09433594 10.47773437 -1.09765625 9.421875 C-1.10289307 8.47924805 -1.10812988 7.53662109 -1.11352539 6.56542969 C-1.00968082 4.21876563 -0.66706529 2.24355522 0 0 Z " fill="#EBE1FA" transform="translate(60,83)"/>
<path d="M0 0 C2.16796875 0.83984375 2.16796875 0.83984375 3.16796875 2.83984375 C1.80671875 2.74703125 1.80671875 2.74703125 0.41796875 2.65234375 C-3.22488037 2.86250812 -4.11513553 3.57576399 -6.83203125 5.83984375 C-7.55390625 6.00484375 -8.27578125 6.16984375 -9.01953125 6.33984375 C-9.61765625 6.50484375 -10.21578125 6.66984375 -10.83203125 6.83984375 C-11.16203125 7.82984375 -11.49203125 8.81984375 -11.83203125 9.83984375 C-12.49203125 9.83984375 -13.15203125 9.83984375 -13.83203125 9.83984375 C-14.16203125 8.84984375 -14.49203125 7.85984375 -14.83203125 6.83984375 C-12.94745587 5.6345571 -11.0488554 4.45117926 -9.14453125 3.27734375 C-8.08878906 2.61605469 -7.03304687 1.95476563 -5.9453125 1.2734375 C-2.83203125 -0.16015625 -2.83203125 -0.16015625 0 0 Z " fill="#C5AFEB" transform="translate(74.83203125,58.16015625)"/>
<path d="M0 0 C-0.1875 2.375 -0.1875 2.375 -1 5 C-3.5625 6.3125 -3.5625 6.3125 -6 7 C-6.99 5.68 -7.98 4.36 -9 3 C-8.34 3 -7.68 3 -7 3 C-7 2.34 -7 1.68 -7 1 C-3.375 -1.125 -3.375 -1.125 0 0 Z " fill="#F4EFFA" transform="translate(103,76)"/>
<path d="M0 0 C2 1 2 1 2.63256836 2.81933594 C3.219486 6.30262392 2.83155452 9.7491987 2.5625 13.25 C2.48418945 14.36761719 2.48418945 14.36761719 2.40429688 15.5078125 C2.2751783 17.33894861 2.13834886 19.16953813 2 21 C2.66 21.33 3.32 21.66 4 22 C3.01 22 2.02 22 1 22 C1 16.39 1 10.78 1 5 C-0.32 4.67 -1.64 4.34 -3 4 C-3 3.01 -3 2.02 -3 1 C-2.01 0.67 -1.02 0.34 0 0 Z " fill="#BAAAE1" transform="translate(92,57)"/>
<path d="M0 0 C0.66 0.99 1.32 1.98 2 3 C-0.97 5.475 -0.97 5.475 -4 8 C-5.32 7.34 -6.64 6.68 -8 6 C-8 5.34 -8 4.68 -8 4 C-5.36 2.68 -2.72 1.36 0 0 Z " fill="#614F9E" transform="translate(104,79)"/>
<path d="M0 0 C0.99 0 1.98 0 3 0 C3 0.66 3 1.32 3 2 C0.4453125 3.7265625 0.4453125 3.7265625 -2.875 5.625 C-3.96554688 6.25664063 -5.05609375 6.88828125 -6.1796875 7.5390625 C-9 9 -9 9 -11 9 C-10.9375 7.1875 -10.9375 7.1875 -10 5 C-6.5039097 3.18721244 -3.96018245 2 0 2 C0 1.34 0 0.68 0 0 Z " fill="#605598" transform="translate(107,96)"/>
<path d="M0 0 C0.66 0.66 1.32 1.32 2 2 C0.07010782 3.19982444 -1.86919228 4.38452818 -3.8125 5.5625 C-5.43091797 6.55443359 -5.43091797 6.55443359 -7.08203125 7.56640625 C-10 9 -10 9 -13 8 C-10.67427083 4.51140625 -9.16172903 3.94167412 -5.375 2.3125 C-4.37210938 1.87550781 -3.36921875 1.43851562 -2.3359375 0.98828125 C-1.17964844 0.49908203 -1.17964844 0.49908203 0 0 Z " fill="#655997" transform="translate(86,81)"/>
<path d="M0 0 C5.50102837 0.41257713 9.76201664 2.54722675 14 6 C14 6.66 14 7.32 14 8 C8.25 6.125 8.25 6.125 6 5 C6 4.34 6 3.68 6 3 C4.02 2.34 2.04 1.68 0 1 C0 0.67 0 0.34 0 0 Z " fill="#AC9CDC" transform="translate(38,97)"/>
<path d="M0 0 C3.45925163 1.2491742 6.14693203 2.67527795 9 5 C5.25 8 5.25 8 3 8 C1.92474806 5.34771188 0.90543849 2.71631546 0 0 Z " fill="#BBA7EB" transform="translate(79,61)"/>
<path d="M0 0 C0.99 0.495 0.99 0.495 2 1 C1.979375 2.093125 1.95875 3.18625 1.9375 4.3125 C1.81455548 7.94384191 1.81455548 7.94384191 3 11 C3.99 11.33 4.98 11.66 6 12 C4.02 12.66 2.04 13.32 0 14 C0 9.38 0 4.76 0 0 Z " fill="#6951BD" transform="translate(74,73)"/>
<path d="M0 0 C0 5.94 0 11.88 0 18 C-0.33 18 -0.66 18 -1 18 C-1.33 13.38 -1.66 8.76 -2 4 C-3.32 3.67 -4.64 3.34 -6 3 C-1.125 0 -1.125 0 0 0 Z " fill="#57498C" transform="translate(112,75)"/>
<path d="M0 0 C4.60853797 0.72008406 8.67237409 2.31295939 13 4 C12.67 4.99 12.34 5.98 12 7 C7.69235185 5.43358249 3.93828536 3.31663844 0 1 C0 0.67 0 0.34 0 0 Z " fill="#AD9CE2" transform="translate(60,110)"/>
<path d="M0 0 C0.33 0 0.66 0 1 0 C1 3.63 1 7.26 1 11 C2.98 11.495 2.98 11.495 5 12 C3.625 13.5 3.625 13.5 2 15 C1.34 15 0.68 15 0 15 C0 10.05 0 5.1 0 0 Z " fill="#5A4894" transform="translate(94,63)"/>
<path d="M0 0 C-0.21484375 1.890625 -0.21484375 1.890625 -1 4 C-3.06640625 5.046875 -3.06640625 5.046875 -5.5625 5.75 C-6.80193359 6.11351563 -6.80193359 6.11351563 -8.06640625 6.484375 C-9.02353516 6.73960938 -9.02353516 6.73960938 -10 7 C-10 6.34 -10 5.68 -10 5 C-8.3203125 3.7109375 -8.3203125 3.7109375 -6.125 2.375 C-5.40570313 1.92898437 -4.68640625 1.48296875 -3.9453125 1.0234375 C-2 0 -2 0 0 0 Z " fill="#5F529A" transform="translate(86,90)"/>
<path d="M0 0 C2.875 0.25 2.875 0.25 6 1 C7.375 3.0625 7.375 3.0625 8 5 C4.62496331 3.8141763 2.35277269 2.72426311 0 0 Z " fill="#AD97E7" transform="translate(64,84)"/>
<path d="M0 0 C4.75 0.875 4.75 0.875 7 2 C7 2.66 7 3.32 7 4 C5.68 4.33 4.36 4.66 3 5 C3 4.34 3 3.68 3 3 C2.01 2.67 1.02 2.34 0 2 C0 1.34 0 0.68 0 0 Z " fill="#C0ADED" transform="translate(79,34)"/>
</svg>
